norounding.ufo
<glyph name="exclam" format="1">
  <advance width="238.5"/>
  <unicode hex="0021"/>
  <outline>
    <contour>
      <point x="121.0" y="-2.0" type="curve" smooth="yes"/>
      <point x="163.5" y="-2.0"/>
      <point x="189.0" y="21.5"/>
      <point x="189.0" y="62.5" type="curve" smooth="yes"/>
      <point x="189.0" y="103.5"/>
      <point x="163.5" y="127.5"/>
      <point x="121.0" y="127.5" type="curve" smooth="yes"/>
      <point x="78.5" y="127.5"/>
      <point x="53.5" y="104.0"/>
      <point x="53.5" y="62.5" type="curve" smooth="yes"/>
      <point x="53.5" y="21.5"/>
      <point x="78.5" y="-2.0"/>
    </contour>
    <contour>
      <point x="84.0" y="212.0" type="line"/>
      <point x="155.0" y="212.0" type="line"/>
      <point x="155.0" y="224.0" type="line"/>
      <point x="178.5" y="730.0" type="line"/>
      <point x="178.5" y="740.0" type="line"/>
      <point x="60.0" y="740.0" type="line"/>
      <point x="60.0" y="730.0" type="line"/>
      <point x="84.0" y="224.0" type="line"/>
    </contour>
  </outline>
</glyph>
<glyph name="parenright" format="1">
  <advance width="291.5"/>
  <unicode hex="0029"/>
  <outline>
    <contour>
      <point x="107.0" y="-160.0" type="line"/>
      <point x="207.5" y="-12.0"/>
      <point x="260.0" y="169.5"/>
      <point x="260.0" y="354.0" type="curve" smooth="yes"/>
      <point x="260.0" y="538.5"/>
      <point x="207.5" y="720.0"/>
      <point x="107.0" y="868.0" type="curve"/>
      <point x="8.5" y="868.0" type="line"/>
      <point x="8.5" y="864.0" type="line"/>
      <point x="108.0" y="717.5"/>
      <point x="166.0" y="538.5"/>
      <point x="166.0" y="354.0" type="curve" smooth="yes"/>
      <point x="166.0" y="169.0"/>
      <point x="108.0" y="-9.5"/>
      <point x="8.5" y="-156.0" type="curve"/>
      <point x="8.5" y="-160.0" type="line"/>
    </contour>
  </outline>
</glyph>
<glyph name="asterisk" format="1">
  <advance width="480.5"/>
  <unicode hex="002A"/>
  <outline>
    <contour>
      <point x="234.5" y="623.5" type="line"/>
      <point x="247.0" y="623.5" type="line"/>
      <point x="252.5" y="630.0" type="line"/>
      <point x="278.5" y="760.0" type="line"/>
      <point x="278.5" y="838.0" type="line"/>
      <point x="202.5" y="838.0" type="line"/>
      <point x="202.5" y="760.0" type="line"/>
      <point x="228.0" y="630.0" type="line"/>
    </contour>
    <contour>
      <point x="237.5" y="618.5" type="line"/>
      <point x="245.0" y="641.5" type="line"/>
      <point x="129.5" y="706.0" type="line"/>
      <point x="54.5" y="729.5" type="line"/>
      <point x="31.5" y="657.5" type="line"/>
      <point x="105.5" y="633.5" type="line"/>
    </contour>
    <contour>
      <point x="148.5" y="440.0" type="line"/>
      <point x="194.5" y="503.0" type="line"/>
      <point x="249.5" y="624.0" type="line"/>
      <point x="230.0" y="638.0" type="line"/>
      <point x="133.0" y="548.0" type="line"/>
      <point x="87.0" y="484.0" type="line"/>
    </contour>
    <contour>
      <point x="332.0" y="440.0" type="line"/>
      <point x="393.5" y="484.0" type="line"/>
      <point x="347.5" y="548.0" type="line"/>
      <point x="250.5" y="638.0" type="line"/>
      <point x="231.0" y="624.0" type="line"/>
      <point x="286.0" y="503.0" type="line"/>
    </contour>
    <contour>
      <point x="449.0" y="657.5" type="line"/>
      <point x="426.0" y="729.5" type="line"/>
      <point x="351.0" y="706.0" type="line"/>
      <point x="235.5" y="641.5" type="line"/>
      <point x="243.0" y="618.5" type="line"/>
      <point x="375.0" y="633.5" type="line"/>
    </contour>
  </outline>
</glyph>
<glyph name="comma" format="1">
  <advance width="219.5"/>
  <unicode hex="002C"/>
  <outline>
    <contour>
      <point x="101.0" y="-155.0" type="line"/>
      <point x="175.0" y="122.5" type="line"/>
      <point x="60.5" y="122.5" type="line"/>
      <point x="16.0" y="-145.0" type="line"/>
    </contour>
  </outline>
</glyph>
<glyph name="period" format="1">
  <advance width="218.5"/>
  <unicode hex="002E"/>
  <outline>
    <contour>
      <point x="109.0" y="-5.0" type="curve" smooth="yes"/>
      <point x="155.0" y="-5.0"/>
      <point x="176.5" y="16.0"/>
      <point x="176.5" y="60.5" type="curve" smooth="yes"/>
      <point x="176.5" y="105.0"/>
      <point x="154.5" y="126.0"/>
      <point x="109.0" y="126.0" type="curve" smooth="yes"/>
      <point x="63.0" y="126.0"/>
      <point x="42.5" y="105.5"/>
      <point x="42.5" y="60.5" type="curve" smooth="yes"/>
      <point x="42.5" y="15.5"/>
      <point x="63.5" y="-5.0"/>
    </contour>
  </outline>
</glyph>
<glyph name="zero" format="1">
  <advance width="568.0"/>
  <unicode hex="0030"/>
  <outline>
    <contour>
      <point x="284.0" y="-10.0" type="curve" smooth="yes"/>
      <point x="443.5" y="-10.0"/>
      <point x="528.0" y="121.0"/>
      <point x="528.0" y="369.0" type="curve" smooth="yes"/>
      <point x="528.0" y="618.0"/>
      <point x="443.5" y="750.0"/>
      <point x="284.0" y="750.0" type="curve" smooth="yes"/>
      <point x="124.5" y="750.0"/>
      <point x="40.0" y="617.5"/>
      <point x="40.0" y="369.0" type="curve" smooth="yes"/>
      <point x="40.0" y="121.0"/>
      <point x="124.5" y="-10.0"/>
    </contour>
    <contour>
      <point x="284.0" y="86.5" type="curve" smooth="yes"/>
      <point x="194.0" y="86.5"/>
      <point x="154.5" y="174.0"/>
      <point x="154.5" y="369.0" type="curve" smooth="yes"/>
      <point x="154.5" y="563.5"/>
      <point x="195.5" y="653.5"/>
      <point x="284.0" y="653.5" type="curve" smooth="yes"/>
      <point x="373.0" y="653.5"/>
      <point x="413.5" y="564.5"/>
      <point x="413.5" y="369.0" type="curve" smooth="yes"/>
      <point x="413.5" y="173.5"/>
      <point x="374.0" y="86.5"/>
    </contour>
  </outline>
</glyph>
<glyph name="one" format="1">
  <advance width="361.0"/>
  <unicode hex="0031"/>
  <outline>
    <contour>
      <point x="172.5" y="0.0" type="line"/>
      <point x="287.0" y="0.0" type="line"/>
      <point x="287.0" y="740.0" type="line"/>
      <point x="204.0" y="740.0" type="line"/>
      <point x="13.5" y="608.5" type="line"/>
      <point x="11.0" y="593.5" type="line"/>
      <point x="33.5" y="539.0" type="line"/>
      <point x="48.0" y="539.0" type="line"/>
      <point x="169.0" y="609.5" type="line"/>
      <point x="172.5" y="609.5" type="line"/>
    </contour>
  </outline>
</glyph>
<glyph name="six" format="1">
  <advance width="530.5"/>
  <unicode hex="0036"/>
  <outline>
    <contour>
      <point x="275.5" y="-11.0" type="curve" smooth="yes"/>
      <point x="414.0" y="-11.0"/>
      <point x="502.0" y="88.0"/>
      <point x="502.0" y="242.5" type="curve" smooth="yes"/>
      <point x="502.0" y="377.0"/>
      <point x="423.0" y="461.5"/>
      <point x="299.0" y="461.5" type="curve" smooth="yes"/>
      <point x="227.0" y="461.5"/>
      <point x="157.5" y="422.5"/>
      <point x="119.0" y="360.0" type="curve"/>
      <point x="140.5" y="304.5" type="line"/>
      <point x="171.0" y="346.0"/>
      <point x="226.5" y="375.5"/>
      <point x="275.0" y="375.5" type="curve" smooth="yes"/>
      <point x="350.0" y="375.5"/>
      <point x="390.0" y="328.5"/>
      <point x="390.0" y="239.5" type="curve" smooth="yes"/>
      <point x="390.0" y="142.5"/>
      <point x="348.0" y="85.5"/>
      <point x="275.5" y="85.5" type="curve" smooth="yes"/>
      <point x="189.0" y="85.5"/>
      <point x="149.0" y="161.5"/>
      <point x="149.0" y="329.5" type="curve" smooth="yes"/>
      <point x="149.0" y="549.5"/>
      <point x="212.0" y="657.0"/>
      <point x="346.0" y="657.0" type="curve" smooth="yes"/>
      <point x="377.5" y="657.0"/>
      <point x="409.0" y="652.0"/>
      <point x="451.5" y="640.5" type="curve"/>
      <point x="463.0" y="733.0" type="line"/>
      <point x="418.5" y="745.0"/>
      <point x="380.0" y="751.0"/>
      <point x="342.5" y="751.0" type="curve" smooth="yes"/>
      <point x="145.5" y="751.0"/>
      <point x="39.5" y="602.0"/>
      <point x="39.5" y="330.0" type="curve" smooth="yes"/>
      <point x="39.5" y="108.0"/>
      <point x="122.5" y="-11.0"/>
    </contour>
  </outline>
</glyph>
<glyph name="seven" format="1">
  <advance width="405.0"/>
  <unicode hex="0037"/>
  <outline>
    <contour>
      <point x="163.5" y="-15.0" type="line"/>
      <point x="71.0" y="0.0" type="line"/>
      <point x="71.0" y="16.0" type="line"/>
      <point x="289.0" y="668.5" type="line"/>
      <point x="324.0" y="643.0" type="line"/>
      <point x="21.5" y="643.0" type="line"/>
      <point x="19.0" y="726.5" type="line"/>
      <point x="33.0" y="740.0" type="line"/>
      <point x="376.0" y="740.0" type="line"/>
      <point x="391.5" y="675.5" type="line"/>
      <point x="391.5" y="647.5" type="line"/>
      <point x="184.5" y="0.5" type="line"/>
    </contour>
  </outline>
</glyph>
<glyph name="eight" format="1">
  <advance width="520.5"/>
  <unicode hex="0038"/>
  <outline>
    <contour>
      <point x="260.5" y="-3.0" type="curve" smooth="yes"/>
      <point x="397.5" y="-3.0"/>
      <point x="482.0" y="74.0"/>
      <point x="482.0" y="199.0" type="curve" smooth="yes"/>
      <point x="482.0" y="333.0"/>
      <point x="404.5" y="380.0"/>
      <point x="296.5" y="413.5" type="curve" smooth="yes"/>
      <point x="209.0" y="440.5"/>
      <point x="158.5" y="473.5"/>
      <point x="158.5" y="550.5" type="curve" smooth="yes"/>
      <point x="158.5" y="625.5"/>
      <point x="196.0" y="669.0"/>
      <point x="260.5" y="669.0" type="curve" smooth="yes"/>
      <point x="326.0" y="669.0"/>
      <point x="362.0" y="629.0"/>
      <point x="362.0" y="556.5" type="curve" smooth="yes"/>
      <point x="362.0" y="477.0"/>
      <point x="332.0" y="434.5"/>
      <point x="255.5" y="402.0" type="curve"/>
      <point x="318.0" y="357.0" type="line"/>
      <point x="428.0" y="403.0"/>
      <point x="464.0" y="454.0"/>
      <point x="464.0" y="557.0" type="curve" smooth="yes"/>
      <point x="464.0" y="675.5"/>
      <point x="385.5" y="749.0"/>
      <point x="260.5" y="749.0" type="curve" smooth="yes"/>
      <point x="135.5" y="749.0"/>
      <point x="56.5" y="675.0"/>
      <point x="56.5" y="557.0" type="curve" smooth="yes"/>
      <point x="56.5" y="423.0"/>
      <point x="134.0" y="372.5"/>
      <point x="238.0" y="338.5" type="curve" smooth="yes"/>
      <point x="328.0" y="309.5"/>
      <point x="376.5" y="275.0"/>
      <point x="376.5" y="189.0" type="curve" smooth="yes"/>
      <point x="376.5" y="117.5"/>
      <point x="332.0" y="74.0"/>
      <point x="260.5" y="74.0" type="curve" smooth="yes"/>
      <point x="189.0" y="74.0"/>
      <point x="144.0" y="120.5"/>
      <point x="144.0" y="196.0" type="curve" smooth="yes"/>
      <point x="144.0" y="275.5"/>
      <point x="183.0" y="319.0"/>
      <point x="263.0" y="355.5" type="curve"/>
      <point x="189.0" y="396.0" type="line"/>
      <point x="85.0" y="355.5"/>
      <point x="38.5" y="289.0"/>
      <point x="38.5" y="182.0" type="curve" smooth="yes"/>
      <point x="38.5" y="68.0"/>
      <point x="123.5" y="-3.0"/>
    </contour>
  </outline>
</glyph>
<glyph name="H" format="1">
  <advance width="645.5"/>
  <unicode hex="0048"/>
  <outline>
    <contour>
      <point x="316.5" y="782.5" type="move" name="topUC"/>
    </contour>
    <contour>
      <point x="326.5" y="0.0" type="move" name="bottom"/>
    </contour>
    <contour>
      <point x="65.5" y="0.0" type="line"/>
      <point x="180.0" y="0.0" type="line"/>
      <point x="180.0" y="328.5" type="line"/>
      <point x="465.5" y="328.5" type="line"/>
      <point x="465.5" y="0.0" type="line"/>
      <point x="580.0" y="0.0" type="line"/>
      <point x="580.0" y="740.0" type="line"/>
      <point x="465.5" y="740.0" type="line"/>
      <point x="465.5" y="426.5" type="line"/>
      <point x="180.0" y="426.5" type="line"/>
      <point x="180.0" y="740.0" type="line"/>
      <point x="65.5" y="740.0" type="line"/>
    </contour>
  </outline>
</glyph>
<glyph name="J" format="1">
  <advance width="246.0"/>
  <unicode hex="004A"/>
  <outline>
    <contour>
      <point x="124.5" y="782.5" type="move" name="topUC"/>
    </contour>
    <contour>
      <point x="61.0" y="-194.5" type="line"/>
      <point x="148.5" y="-58.0"/>
      <point x="182.5" y="48.5"/>
      <point x="182.5" y="180.0" type="curve" smooth="yes"/>
      <point x="182.5" y="740.0" type="line"/>
      <point x="67.5" y="740.0" type="line"/>
      <point x="67.5" y="189.0" type="line" smooth="yes"/>
      <point x="67.5" y="53.0"/>
      <point x="51.0" y="-20.0"/>
      <point x="-12.0" y="-159.5" type="curve"/>
    </contour>
  </outline>
</glyph>
<glyph name="M" format="1">
  <advance width="829.5"/>
  <unicode hex="004D"/>
  <outline>
    <contour>
      <point x="65.5" y="0.0" type="line"/>
      <point x="172.5" y="0.0" type="line"/>
      <point x="172.5" y="585.5" type="line"/>
      <point x="179.5" y="586.0" type="line"/>
      <point x="211.5" y="469.5" type="line"/>
      <point x="363.5" y="35.5" type="line"/>
      <point x="466.0" y="35.5" type="line"/>
      <point x="618.0" y="469.5" type="line"/>
      <point x="650.0" y="586.0" type="line"/>
      <point x="657.0" y="585.5" type="line"/>
      <point x="657.0" y="0.0" type="line"/>
      <point x="764.0" y="0.0" type="line"/>
      <point x="764.0" y="740.0" type="line"/>
      <point x="603.5" y="740.0" type="line"/>
      <point x="443.0" y="288.5" type="line"/>
      <point x="418.0" y="174.5" type="line"/>
      <point x="411.0" y="174.5" type="line"/>
      <point x="386.0" y="288.5" type="line"/>
      <point x="226.0" y="740.0" type="line"/>
      <point x="65.5" y="740.0" type="line"/>
    </contour>
  </outline>
</glyph>
<glyph name="X" format="1">
  <advance width="588.5"/>
  <unicode hex="0058"/>
  <outline>
    <contour>
      <point x="-1.5" y="0.0" type="line"/>
      <point x="122.5" y="0.0" type="line"/>
      <point x="282.0" y="281.0" type="line"/>
      <point x="289.5" y="295.5" type="line"/>
      <point x="289.5" y="295.5" type="line"/>
      <point x="297.0" y="281.0" type="line"/>
      <point x="463.0" y="0.0" type="line"/>
      <point x="590.5" y="0.0" type="line"/>
      <point x="366.5" y="382.5" type="line"/>
      <point x="577.0" y="740.0" type="line"/>
      <point x="454.0" y="740.0" type="line"/>
      <point x="306.0" y="476.5" type="line"/>
      <point x="299.0" y="462.0" type="line"/>
      <point x="298.0" y="462.0" type="line"/>
      <point x="291.5" y="476.5" type="line"/>
      <point x="140.5" y="740.0" type="line"/>
      <point x="11.5" y="740.0" type="line"/>
      <point x="221.0" y="377.5" type="line"/>
    </contour>
  </outline>
</glyph>
<glyph name="bracketleft" format="1">
  <advance width="311.5"/>
  <unicode hex="005B"/>
  <outline>
    <contour>
      <point x="67.5" y="-160.0" type="line"/>
      <point x="289.0" y="-160.0" type="line"/>
      <point x="289.0" y="-82.5" type="line"/>
      <point x="157.0" y="-82.5" type="line"/>
      <point x="157.0" y="790.5" type="line"/>
      <point x="289.0" y="790.5" type="line"/>
      <point x="289.0" y="868.0" type="line"/>
      <point x="67.5" y="868.0" type="line"/>
    </contour>
  </outline>
</glyph>
<glyph name="a" format="1">
  <advance width="472.0"/>
  <unicode hex="0061"/>
  <outline>
    <contour>
      <point x="240.5" y="600.0" type="move" name="top"/>
    </contour>
    <contour>
      <point x="420.0" y="0.0" type="move" name="ogonek"/>
    </contour>
    <contour>
      <point x="161.5" y="-5.0" type="curve" smooth="yes"/>
      <point x="219.5" y="-5.0"/>
      <point x="272.5" y="27.5"/>
      <point x="310.5" y="65.0" type="curve"/>
      <point x="317.5" y="65.0" type="line"/>
      <point x="327.0" y="0.0" type="line"/>
      <point x="420.0" y="0.0" type="line"/>
      <point x="420.0" y="377.5" type="line" smooth="yes"/>
      <point x="420.0" y="495.0"/>
      <point x="360.5" y="548.0"/>
      <point x="227.0" y="548.0" type="curve" smooth="yes"/>
      <point x="178.5" y="548.0"/>
      <point x="119.0" y="540.5"/>
      <point x="64.5" y="530.5" type="curve"/>
      <point x="73.0" y="446.0" type="line"/>
      <point x="109.5" y="454.5"/>
      <point x="178.0" y="462.0"/>
      <point x="208.5" y="462.0" type="curve" smooth="yes"/>
      <point x="284.5" y="462.0"/>
      <point x="308.0" y="435.5"/>
      <point x="308.0" y="350.5" type="curve" smooth="yes"/>
      <point x="308.0" y="128.0" type="line"/>
      <point x="281.0" y="110.5"/>
      <point x="237.0" y="80.5"/>
      <point x="202.0" y="80.5" type="curve" smooth="yes"/>
      <point x="159.5" y="80.5"/>
      <point x="136.0" y="107.0"/>
      <point x="136.0" y="154.5" type="curve" smooth="yes"/>
      <point x="136.0" y="207.5"/>
      <point x="165.0" y="232.0"/>
      <point x="238.5" y="239.5" type="curve" smooth="yes"/>
      <point x="338.0" y="248.5" type="line"/>
      <point x="331.0" y="319.0" type="line"/>
      <point x="214.5" y="310.5" type="line" smooth="yes"/>
      <point x="87.0" y="301.5"/>
      <point x="24.0" y="246.5"/>
      <point x="24.0" y="144.5" type="curve" smooth="yes"/>
      <point x="24.0" y="54.0"/>
      <point x="78.0" y="-5.0"/>
    </contour>
  </outline>
</glyph>
<glyph name="e" format="1">
  <advance width="469.0"/>
  <unicode hex="0065"/>
  <outline>
    <contour>
      <point x="236.5" y="600.0" type="move" name="top"/>
    </contour>
    <contour>
      <point x="417.5" y="22.0" type="move" name="ogonek"/>
    </contour>
    <contour>
      <point x="244.0" y="0.0" type="move" name="bottom"/>
    </contour>
    <contour>
      <point x="258.0" y="-9.0" type="curve" smooth="yes"/>
      <point x="311.0" y="-9.0"/>
      <point x="373.5" y="3.0"/>
      <point x="417.5" y="22.0" type="curve"/>
      <point x="412.5" y="108.0" type="line"/>
      <point x="355.0" y="88.5"/>
      <point x="303.5" y="78.5"/>
      <point x="264.0" y="78.5" type="curve" smooth="yes"/>
      <point x="180.0" y="78.5"/>
      <point x="146.0" y="130.5"/>
      <point x="146.0" y="265.5" type="curve" smooth="yes"/>
      <point x="146.0" y="401.5"/>
      <point x="180.5" y="462.5"/>
      <point x="252.5" y="462.5" type="curve" smooth="yes"/>
      <point x="312.5" y="462.5"/>
      <point x="336.0" y="413.5"/>
      <point x="336.0" y="289.5" type="curve"/>
      <point x="351.0" y="305.0" type="line"/>
      <point x="85.5" y="305.0" type="line"/>
      <point x="85.5" y="231.5" type="line"/>
      <point x="432.5" y="231.5" type="line"/>
      <point x="436.0" y="253.0"/>
      <point x="437.0" y="269.5"/>
      <point x="437.0" y="306.0" type="curve" smooth="yes"/>
      <point x="437.0" y="469.0"/>
      <point x="377.5" y="549.0"/>
      <point x="255.5" y="549.0" type="curve" smooth="yes"/>
      <point x="110.0" y="549.0"/>
      <point x="33.5" y="449.5"/>
      <point x="33.5" y="262.0" type="curve" smooth="yes"/>
      <point x="33.5" y="87.0"/>
      <point x="112.5" y="-9.0"/>
    </contour>
  </outline>
</glyph>
<glyph name="l" format="1">
  <advance width="226.0"/>
  <unicode hex="006C"/>
  <outline>
    <contour>
      <point x="114.0" y="822.5" type="move" name="top"/>
    </contour>
    <contour>
      <point x="244.5" y="370.0" type="move" name="periodcentered"/>
    </contour>
    <contour>
      <point x="244.5" y="741.0" type="move" name="caronalt"/>
    </contour>
    <contour>
      <point x="111.5" y="0.0" type="move" name="bottom"/>
    </contour>
    <contour>
      <point x="57.0" y="0.0" type="line"/>
      <point x="169.0" y="0.0" type="line"/>
      <point x="169.0" y="808.0" type="line"/>
      <point x="57.0" y="808.0" type="line"/>
    </contour>
  </outline>
</glyph>
<glyph name="y" format="1">
  <advance width="494.5"/>
  <unicode hex="0079"/>
  <outline>
    <contour>
      <point x="252.0" y="600.0" type="move" name="top"/>
    </contour>
    <contour>
      <point x="237.5" y="-220.0" type="line"/>
      <point x="487.5" y="531.5" type="line"/>
      <point x="487.5" y="540.0" type="line"/>
      <point x="374.0" y="540.0" type="line"/>
      <point x="263.0" y="181.5" type="line"/>
      <point x="250.5" y="114.5" type="line"/>
      <point x="243.5" y="114.5" type="line"/>
      <point x="231.5" y="181.5" type="line"/>
      <point x="120.0" y="540.0" type="line"/>
      <point x="6.5" y="540.0" type="line"/>
      <point x="6.5" y="531.5" type="line"/>
      <point x="189.5" y="1.0" type="line"/>
      <point x="126.0" y="-191.0" type="line"/>
      <point x="126.0" y="-197.0" type="line"/>
    </contour>
  </outline>
</glyph>
<glyph name="bar" format="1">
  <advance width="240.5"/>
  <unicode hex="007C"/>
  <outline>
    <contour>
      <point x="67.5" y="808.0" type="line"/>
      <point x="67.5" y="-220.0" type="line"/>
      <point x="173.0" y="-220.0" type="line"/>
      <point x="173.0" y="808.0" type="line"/>
    </contour>
  </outline>
</glyph>
<glyph name="sterling" format="1">
  <advance width="546.0"/>
  <unicode hex="00A3"/>
  <outline>
    <contour>
      <point x="36.5" y="0.0" type="line"/>
      <point x="498.5" y="0.0" type="line"/>
      <point x="498.5" y="98.0" type="line"/>
      <point x="258.0" y="98.0" type="line"/>
      <point x="258.0" y="528.0" type="line"/>
      <point x="258.0" y="617.5"/>
      <point x="286.0" y="650.5"/>
      <point x="361.5" y="650.5" type="curve" smooth="yes"/>
      <point x="399.5" y="650.5"/>
      <point x="457.5" y="642.0"/>
      <point x="505.0" y="628.0" type="curve"/>
      <point x="512.5" y="720.0" type="line"/>
      <point x="443.0" y="738.0"/>
      <point x="388.5" y="747.0"/>
      <point x="341.0" y="747.0" type="curve" smooth="yes"/>
      <point x="202.0" y="747.0"/>
      <point x="143.5" y="678.0"/>
      <point x="143.5" y="530.5" type="curve" smooth="yes"/>
      <point x="143.5" y="99.0" type="line"/>
      <point x="36.5" y="99.0" type="line"/>
    </contour>
    <contour>
      <point x="36.5" y="325.0" type="line"/>
      <point x="424.5" y="325.0" type="line"/>
      <point x="424.5" y="414.5" type="line"/>
      <point x="36.5" y="414.5" type="line"/>
    </contour>
  </outline>
</glyph>
<glyph name="macron" format="1">
  <advance width="385.0"/>
  <unicode hex="00AF"/>
  <outline>
    <contour>
      <point x="190.0" y="600.0" type="move" name="_top"/>
    </contour>
    <contour>
      <point x="47.0" y="635.0" type="line"/>
      <point x="333.0" y="635.0" type="line"/>
      <point x="333.0" y="709.0" type="line"/>
      <point x="47.0" y="709.0" type="line"/>
    </contour>
  </outline>
</glyph>
<glyph name="threesuperior" format="1">
  <advance width="345.0"/>
  <unicode hex="00B3"/>
  <outline>
    <contour>
      <point x="130.0" y="294.0" type="curve" smooth="yes"/>
      <point x="246.0" y="294.0"/>
      <point x="314.5" y="350.5"/>
      <point x="314.5" y="446.5" type="curve" smooth="yes"/>
      <point x="314.5" y="516.5"/>
      <point x="279.5" y="564.0"/>
      <point x="214.0" y="583.5" type="curve"/>
      <point x="269.0" y="603.0"/>
      <point x="300.0" y="649.0"/>
      <point x="300.0" y="714.5" type="curve" smooth="yes"/>
      <point x="300.0" y="806.5"/>
      <point x="244.0" y="854.0"/>
      <point x="130.5" y="854.0" type="curve" smooth="yes"/>
      <point x="97.5" y="854.0"/>
      <point x="66.0" y="849.5"/>
      <point x="32.0" y="841.0" type="curve"/>
      <point x="36.5" y="760.0" type="line"/>
      <point x="46.5" y="760.0" type="line"/>
      <point x="76.5" y="766.5"/>
      <point x="101.5" y="769.5"/>
      <point x="122.5" y="769.5" type="curve" smooth="yes"/>
      <point x="176.0" y="769.5"/>
      <point x="203.0" y="744.0"/>
      <point x="203.0" y="695.5" type="curve" smooth="yes"/>
      <point x="203.0" y="645.5"/>
      <point x="169.5" y="618.0"/>
      <point x="104.5" y="618.0" type="curve" smooth="yes"/>
      <point x="81.0" y="618.0" type="line"/>
      <point x="81.0" y="541.0" type="line"/>
      <point x="104.5" y="541.0" type="line" smooth="yes"/>
      <point x="183.5" y="541.0"/>
      <point x="217.5" y="513.5"/>
      <point x="217.5" y="454.5" type="curve" smooth="yes"/>
      <point x="217.5" y="405.0"/>
      <point x="184.5" y="378.0"/>
      <point x="117.5" y="378.0" type="curve" smooth="yes"/>
      <point x="92.5" y="378.0"/>
      <point x="65.5" y="382.0"/>
      <point x="45.0" y="388.0" type="curve"/>
      <point x="34.5" y="388.0" type="line"/>
      <point x="34.5" y="305.0" type="line"/>
      <point x="66.5" y="297.5"/>
      <point x="97.0" y="294.0"/>
    </contour>
  </outline>
</glyph>
<glyph name="mu" format="1">
  <advance width="532.0"/>
  <unicode hex="00B5"/>
  <outline>
    <contour>
      <point x="199.0" y="-10.0" type="curve" smooth="yes"/>
      <point x="245.5" y="-10.0"/>
      <point x="285.0" y="6.5"/>
      <point x="356.5" y="56.0" type="curve"/>
      <point x="360.5" y="56.0" type="line"/>
      <point x="367.5" y="0.0" type="line"/>
      <point x="462.5" y="0.0" type="line"/>
      <point x="462.5" y="540.0" type="line"/>
      <point x="350.5" y="540.0" type="line"/>
      <point x="350.5" y="130.0" type="line"/>
      <point x="305.5" y="99.5"/>
      <point x="273.5" y="86.5"/>
      <point x="242.5" y="86.5" type="curve" smooth="yes"/>
      <point x="199.5" y="86.5"/>
      <point x="178.0" y="113.0"/>
      <point x="178.0" y="165.5" type="curve" smooth="yes"/>
      <point x="178.0" y="540.0" type="line"/>
      <point x="66.0" y="540.0" type="line"/>
      <point x="66.0" y="133.0" type="line" smooth="yes"/>
      <point x="66.0" y="39.0"/>
      <point x="112.5" y="-10.0"/>
    </contour>
    <contour>
      <point x="66.0" y="-220.0" type="line"/>
      <point x="178.0" y="-220.0" type="line"/>
      <point x="178.0" y="210.0" type="line"/>
      <point x="66.0" y="210.0" type="line"/>
    </contour>
  </outline>
</glyph>
<glyph name="cedilla" format="1">
  <advance width="259.5"/>
  <unicode hex="00B8"/>
  <outline>
    <contour>
      <point x="130.5" y="0.0" type="move" name="_bottom"/>
    </contour>
    <contour>
      <point x="98.5" y="-220.0" type="curve" smooth="yes"/>
      <point x="172.5" y="-220.0"/>
      <point x="211.5" y="-179.5"/>
      <point x="211.5" y="-112.5" type="curve" smooth="yes"/>
      <point x="211.5" y="-68.5"/>
      <point x="196.5" y="-28.0"/>
      <point x="159.5" y="26.0" type="curve"/>
      <point x="84.5" y="26.0" type="line"/>
      <point x="113.5" y="-17.5"/>
      <point x="133.5" y="-64.0"/>
      <point x="133.5" y="-95.5" type="curve" smooth="yes"/>
      <point x="133.5" y="-127.5"/>
      <point x="118.0" y="-146.0"/>
      <point x="83.5" y="-146.0" type="curve" smooth="yes"/>
      <point x="72.0" y="-146.0"/>
      <point x="47.5" y="-143.5"/>
      <point x="24.5" y="-137.0" type="curve"/>
      <point x="24.5" y="-209.0" type="line"/>
      <point x="51.5" y="-216.5"/>
      <point x="78.0" y="-220.0"/>
    </contour>
  </outline>
</glyph>
<glyph name="icircumflex" format="1">
  <advance width="226.0"/>
  <unicode hex="00EE"/>
  <outline>
    <contour>
      <point x="-24.5" y="623.5" type="line"/>
      <point x="121.5" y="695.0" type="line"/>
      <point x="267.5" y="623.5" type="line"/>
      <point x="267.5" y="706.0" type="line"/>
      <point x="122.0" y="777.5" type="line"/>
      <point x="-24.5" y="706.0" type="line"/>
    </contour>
    <component base="dotlessi" xOffset="1.0"/>
  </outline>
</glyph>
<glyph name="hbar" format="1">
  <advance width="505.5"/>
  <unicode hex="0127"/>
  <outline>
    <contour>
      <point x="-23.5" y="638.5" type="line"/>
      <point x="293.5" y="638.5" type="line"/>
      <point x="293.5" y="708.0" type="line"/>
      <point x="-23.5" y="708.0" type="line"/>
    </contour>
    <component base="h" xOffset="0.5"/>
  </outline>
</glyph>
<glyph name="dotlessi" format="1">
  <advance width="224.0"/>
  <unicode hex="0131"/>
  <outline>
    <contour>
      <point x="115.5" y="600.0" type="move" name="top"/>
    </contour>
    <contour>
      <point x="56.0" y="0.0" type="line"/>
      <point x="168.0" y="0.0" type="line"/>
      <point x="168.0" y="540.0" type="line"/>
      <point x="56.0" y="540.0" type="line"/>
    </contour>
  </outline>
</glyph>
<glyph name="kgreenlandic" format="1">
  <advance width="474.0"/>
  <unicode hex="0138"/>
  <outline>
    <contour>
      <point x="55.5" y="0.0" type="line"/>
      <point x="167.5" y="0.0" type="line"/>
      <point x="167.5" y="235.5" type="line"/>
      <point x="224.5" y="235.5" type="line"/>
      <point x="357.0" y="0.0" type="line"/>
      <point x="479.5" y="0.0" type="line"/>
      <point x="318.0" y="267.5" type="line"/>
      <point x="298.5" y="276.0" type="line"/>
      <point x="298.5" y="279.0" type="line"/>
      <point x="317.5" y="287.0" type="line"/>
      <point x="462.5" y="540.0" type="line"/>
      <point x="341.0" y="540.0" type="line"/>
      <point x="225.5" y="320.0" type="line"/>
      <point x="167.5" y="320.0" type="line"/>
      <point x="167.5" y="540.0" type="line"/>
      <point x="55.5" y="540.0" type="line"/>
    </contour>
  </outline>
</glyph>
<glyph name="Eng" format="1">
  <advance width="663.5"/>
  <unicode hex="014A"/>
  <outline>
    <contour>
      <point x="491.5" y="-194.0" type="line"/>
      <point x="551.5" y="-101.0"/>
      <point x="599.0" y="24.5"/>
      <point x="599.0" y="89.0" type="curve"/>
      <point x="599.0" y="740.0" type="line"/>
      <point x="495.5" y="740.0" type="line"/>
      <point x="495.5" y="199.0" type="line"/>
      <point x="488.0" y="198.5" type="line"/>
      <point x="447.0" y="281.0" type="line"/>
      <point x="164.5" y="740.0" type="line"/>
      <point x="65.5" y="740.0" type="line"/>
      <point x="65.5" y="0.0" type="line"/>
      <point x="169.0" y="0.0" type="line"/>
      <point x="169.0" y="542.0" type="line"/>
      <point x="176.5" y="542.5" type="line"/>
      <point x="218.0" y="458.5" type="line"/>
      <point x="476.5" y="36.0" type="line"/>
      <point x="465.5" y="-27.5"/>
      <point x="443.5" y="-99.0"/>
      <point x="415.0" y="-169.5" type="curve"/>
    </contour>
  </outline>
</glyph>
<glyph name="florin" format="1">
  <advance width="348.5"/>
  <unicode hex="0192"/>
  <outline>
    <contour>
      <point x="102.0" y="-220.0" type="line"/>
      <point x="214.0" y="-178.5" type="line"/>
      <point x="214.0" y="445.5" type="line"/>
      <point x="318.0" y="445.5" type="line"/>
      <point x="318.0" y="540.0" type="line"/>
      <point x="214.0" y="540.0" type="line"/>
      <point x="214.0" y="582.0" type="line" smooth="yes"/>
      <point x="214.0" y="688.5"/>
      <point x="239.5" y="717.0"/>
      <point x="341.0" y="726.0" type="curve"/>
      <point x="335.0" y="812.5" type="line"/>
      <point x="158.0" y="803.0"/>
      <point x="102.5" y="747.0"/>
      <point x="102.5" y="574.0" type="curve" smooth="yes"/>
      <point x="102.5" y="540.0" type="line"/>
      <point x="28.0" y="540.0" type="line"/>
      <point x="28.0" y="445.5" type="line"/>
      <point x="102.0" y="445.5" type="line"/>
    </contour>
  </outline>
</glyph>
<glyph name="apostrophe" format="1">
  <advance width="198.0"/>
  <unicode hex="02BC"/>
  <outline>
    <contour>
      <point x="104.0" y="674.0" type="move" name="_apostrophe"/>
    </contour>
    <contour>
      <point x="58.5" y="808.0" type="line"/>
      <point x="58.5" y="580.0" type="line"/>
      <point x="114.0" y="580.0" type="line"/>
      <point x="149.5" y="804.0" type="line"/>
      <point x="149.5" y="808.0" type="line"/>
    </contour>
  </outline>
</glyph>
<glyph name="breve" format="1">
  <advance width="405.5"/>
  <unicode hex="02D8"/>
  <outline>
    <contour>
      <point x="201.5" y="600.0" type="move" name="_top"/>
    </contour>
    <contour>
      <point x="201.5" y="616.0" type="curve" smooth="yes"/>
      <point x="301.5" y="616.0"/>
      <point x="358.5" y="669.0"/>
      <point x="363.0" y="765.0" type="curve"/>
      <point x="282.5" y="765.0" type="line"/>
      <point x="281.5" y="710.5"/>
      <point x="253.0" y="681.0"/>
      <point x="201.5" y="681.0" type="curve" smooth="yes"/>
      <point x="149.5" y="681.0"/>
      <point x="120.5" y="710.5"/>
      <point x="120.0" y="765.0" type="curve"/>
      <point x="40.0" y="765.0" type="line"/>
      <point x="43.5" y="669.0"/>
      <point x="101.0" y="616.0"/>
    </contour>
  </outline>
</glyph>
<glyph name="uni0394" format="1">
  <advance width="601.5"/>
  <unicode hex="0394"/>
  <outline>
    <contour>
      <point x="-2.0" y="0.0" type="line"/>
      <point x="603.5" y="0.0" type="line"/>
      <point x="374.5" y="740.0" type="line"/>
      <point x="227.0" y="740.0" type="line"/>
    </contour>
    <contour>
      <point x="133.5" y="98.0" type="line"/>
      <point x="300.5" y="637.0" type="line"/>
      <point x="467.5" y="98.0" type="line"/>
    </contour>
  </outline>
</glyph>
<glyph name="pi" format="1">
  <advance width="676.5"/>
  <unicode hex="03C0"/>
  <outline>
    <contour>
      <point x="196.0" y="-101.5" type="line"/>
      <point x="298.0" y="-101.5" type="line"/>
      <point x="298.0" y="442.0" type="line"/>
      <point x="431.0" y="442.0" type="line"/>
      <point x="431.0" y="128.0" type="line" smooth="yes"/>
      <point x="431.0" y="40.0"/>
      <point x="482.5" y="-6.5"/>
      <point x="570.0" y="-6.5" type="curve" smooth="yes"/>
      <point x="587.0" y="-6.5"/>
      <point x="613.0" y="-4.5"/>
      <point x="626.5" y="-1.0" type="curve"/>
      <point x="626.5" y="83.5" type="line"/>
      <point x="617.5" y="81.0"/>
      <point x="602.5" y="80.0"/>
      <point x="595.0" y="80.0" type="curve" smooth="yes"/>
      <point x="557.0" y="80.0"/>
      <point x="533.0" y="103.5"/>
      <point x="533.0" y="152.5" type="curve" smooth="yes"/>
      <point x="533.0" y="442.0" type="line"/>
      <point x="658.0" y="442.0" type="line"/>
      <point x="658.0" y="511.0" type="line"/>
      <point x="628.5" y="540.0" type="line"/>
      <point x="173.5" y="540.5" type="line" smooth="yes"/>
      <point x="75.5" y="540.5"/>
      <point x="18.0" y="494.0"/>
      <point x="6.5" y="399.0" type="curve"/>
      <point x="92.0" y="375.0" type="line"/>
      <point x="101.0" y="422.0"/>
      <point x="127.0" y="442.0"/>
      <point x="179.5" y="442.0" type="curve" smooth="yes"/>
      <point x="196.0" y="442.0" type="line"/>
    </contour>
  </outline>
</glyph>
<glyph name="quoteleft" format="1">
  <advance width="185.0"/>
  <unicode hex="2018"/>
  <outline>
    <contour>
      <point x="57.5" y="515.0" type="curve"/>
      <point x="144.0" y="525.0" type="line"/>
      <point x="127.5" y="569.5"/>
      <point x="119.5" y="612.0"/>
      <point x="119.5" y="652.5" type="curve" smooth="yes"/>
      <point x="119.5" y="701.0"/>
      <point x="130.0" y="755.5"/>
      <point x="148.5" y="803.0" type="curve"/>
      <point x="98.5" y="811.0" type="line"/>
      <point x="63.0" y="761.0"/>
      <point x="38.5" y="687.0"/>
      <point x="38.5" y="619.0" type="curve" smooth="yes"/>
      <point x="38.5" y="579.5"/>
      <point x="44.0" y="545.5"/>
    </contour>
  </outline>
</glyph>
<glyph name="guilsinglright" format="1">
  <advance width="270.0"/>
  <unicode hex="203A"/>
  <outline>
    <contour>
      <point x="239.5" y="268.0" type="line"/>
      <point x="239.5" y="272.0" type="line"/>
      <point x="145.5" y="510.0" type="line"/>
      <point x="32.5" y="510.0" type="line"/>
      <point x="126.5" y="272.0" type="line"/>
      <point x="126.5" y="268.0" type="line"/>
      <point x="32.5" y="30.0" type="line"/>
      <point x="145.5" y="30.0" type="line"/>
    </contour>
  </outline>
</glyph>
<glyph name="fraction" format="1">
  <advance width="220.0"/>
  <unicode hex="2044"/>
  <outline>
    <contour>
      <point x="-67.0" y="0.0" type="line"/>
      <point x="26.0" y="0.0" type="line"/>
      <point x="286.0" y="740.0" type="line"/>
      <point x="193.0" y="740.0" type="line"/>
    </contour>
  </outline>
</glyph>
<glyph name="zeroinferior" format="1">
  <advance width="443.5"/>
  <unicode hex="2080"/>
  <outline>
    <contour>
      <point x="222.0" y="-107.0" type="curve"/>
      <point x="346.0" y="-107.0"/>
      <point x="411.5" y="-10.0"/>
      <point x="411.5" y="173.0" type="curve" smooth="yes"/>
      <point x="411.5" y="356.0"/>
      <point x="346.0" y="454.0"/>
      <point x="222.0" y="454.0" type="curve" smooth="yes"/>
      <point x="98.5" y="454.0"/>
      <point x="32.0" y="356.0"/>
      <point x="32.0" y="173.0" type="curve" smooth="yes"/>
      <point x="32.0" y="-10.5"/>
      <point x="98.5" y="-107.0"/>
    </contour>
    <contour>
      <point x="222.0" y="-22.5" type="curve" smooth="yes"/>
      <point x="159.5" y="-22.5"/>
      <point x="131.5" y="38.5"/>
      <point x="131.5" y="173.0" type="curve" smooth="yes"/>
      <point x="131.5" y="306.5"/>
      <point x="160.5" y="369.5"/>
      <point x="222.0" y="369.5" type="curve" smooth="yes"/>
      <point x="283.5" y="369.5"/>
      <point x="312.0" y="307.0"/>
      <point x="312.0" y="173.0" type="curve" smooth="yes"/>
      <point x="312.0" y="38.0"/>
      <point x="284.5" y="-22.5"/>
    </contour>
  </outline>
</glyph>
<glyph name="twoinferior" format="1">
  <advance width="366.5"/>
  <unicode hex="2082"/>
  <outline>
    <contour>
      <point x="29.0" y="-100.0" type="line"/>
      <point x="332.0" y="-100.0" type="line"/>
      <point x="332.0" y="-17.0" type="line"/>
      <point x="131.0" y="-17.0" type="line"/>
      <point x="131.0" y="4.5" type="line" smooth="yes"/>
      <point x="131.0" y="49.0"/>
      <point x="163.5" y="89.5"/>
      <point x="232.5" y="140.5" type="curve" smooth="yes"/>
      <point x="301.5" y="189.5"/>
      <point x="334.0" y="238.5"/>
      <point x="334.0" y="310.5" type="curve" smooth="yes"/>
      <point x="334.0" y="405.0"/>
      <point x="280.0" y="453.5"/>
      <point x="174.5" y="453.5" type="curve" smooth="yes"/>
      <point x="137.0" y="453.5"/>
      <point x="90.5" y="446.5"/>
      <point x="40.0" y="432.5" type="curve"/>
      <point x="51.0" y="353.0" type="line"/>
      <point x="89.0" y="362.5"/>
      <point x="123.0" y="369.0"/>
      <point x="151.5" y="369.0" type="curve" smooth="yes"/>
      <point x="206.5" y="369.0"/>
      <point x="234.5" y="346.0"/>
      <point x="234.5" y="301.5" type="curve" smooth="yes"/>
      <point x="234.5" y="261.0"/>
      <point x="213.0" y="230.5"/>
      <point x="155.5" y="190.0" type="curve" smooth="yes"/>
      <point x="63.5" y="127.0"/>
      <point x="29.0" y="71.5"/>
      <point x="29.0" y="-13.0" type="curve" smooth="yes"/>
    </contour>
  </outline>
</glyph>
<glyph name="fiveinferior" format="1">
  <advance width="343.0"/>
  <unicode hex="2085"/>
  <outline>
    <contour>
      <point x="130.5" y="-108.0" type="curve" smooth="yes"/>
      <point x="249.5" y="-108.0"/>
      <point x="318.0" y="-45.0"/>
      <point x="318.0" y="64.5" type="curve" smooth="yes"/>
      <point x="318.0" y="176.5"/>
      <point x="263.0" y="224.5"/>
      <point x="126.0" y="228.5" type="curve"/>
      <point x="136.0" y="363.0" type="line"/>
      <point x="290.0" y="363.0" type="line"/>
      <point x="290.0" y="446.0" type="line"/>
      <point x="58.5" y="446.0" type="line"/>
      <point x="38.5" y="163.0" type="line"/>
      <point x="45.5" y="156.5" type="line"/>
      <point x="92.0" y="156.5" type="line" smooth="yes"/>
      <point x="186.0" y="156.5"/>
      <point x="218.0" y="131.5"/>
      <point x="218.0" y="64.5" type="curve" smooth="yes"/>
      <point x="218.0" y="5.5"/>
      <point x="186.5" y="-26.5"/>
      <point x="124.5" y="-26.5" type="curve" smooth="yes"/>
      <point x="105.0" y="-26.5"/>
      <point x="83.5" y="-23.5"/>
      <point x="57.5" y="-17.5" type="curve"/>
      <point x="33.5" y="-17.5" type="line"/>
      <point x="33.5" y="-96.5" type="line"/>
      <point x="74.0" y="-104.5"/>
      <point x="104.0" y="-108.0"/>
    </contour>
  </outline>
</glyph>
<glyph name="franc" format="1">
  <advance width="557.5"/>
  <unicode hex="20A3"/>
  <outline>
    <contour>
      <point x="123.5" y="0.0" type="line"/>
      <point x="238.0" y="0.0" type="line"/>
      <point x="238.0" y="642.0" type="line"/>
      <point x="523.0" y="642.0" type="line"/>
      <point x="523.0" y="740.0" type="line"/>
      <point x="123.5" y="740.0" type="line"/>
    </contour>
    <contour>
      <point x="25.5" y="99.5" type="line"/>
      <point x="342.0" y="99.5" type="line"/>
      <point x="342.0" y="173.5" type="line"/>
      <point x="25.5" y="173.5" type="line"/>
    </contour>
    <contour>
      <point x="208.0" y="324.0" type="line"/>
      <point x="499.5" y="324.0" type="line"/>
      <point x="499.5" y="422.0" type="line"/>
      <point x="208.0" y="422.0" type="line"/>
    </contour>
  </outline>
</glyph>
<glyph name="lira" format="1">
  <advance width="552.0"/>
  <unicode hex="20A4"/>
  <outline>
    <contour>
      <point x="43.5" y="0.0" type="line"/>
      <point x="505.5" y="0.0" type="line"/>
      <point x="505.5" y="98.0" type="line"/>
      <point x="265.0" y="98.0" type="line"/>
      <point x="265.0" y="528.0" type="line" smooth="yes"/>
      <point x="265.0" y="617.5"/>
      <point x="293.0" y="650.5"/>
      <point x="368.5" y="650.5" type="curve" smooth="yes"/>
      <point x="406.5" y="650.5"/>
      <point x="464.5" y="642.0"/>
      <point x="512.0" y="628.0" type="curve"/>
      <point x="519.5" y="720.0" type="line"/>
      <point x="450.0" y="738.0"/>
      <point x="395.5" y="747.0"/>
      <point x="348.0" y="747.0" type="curve" smooth="yes"/>
      <point x="209.0" y="747.0"/>
      <point x="150.5" y="678.0"/>
      <point x="150.5" y="530.5" type="curve" smooth="yes"/>
      <point x="150.5" y="99.0" type="line"/>
      <point x="43.5" y="99.0" type="line"/>
    </contour>
    <contour>
      <point x="43.5" y="255.0" type="line"/>
      <point x="379.0" y="255.0" type="line"/>
      <point x="399.0" y="318.5" type="line"/>
      <point x="43.5" y="318.5" type="line"/>
    </contour>
    <contour>
      <point x="43.5" y="424.5" type="line"/>
      <point x="411.5" y="424.5" type="line"/>
      <point x="431.5" y="488.0" type="line"/>
      <point x="43.5" y="488.0" type="line"/>
    </contour>
  </outline>
</glyph>
<glyph name="uni20A6" format="1">
  <advance width="795.0"/>
  <unicode hex="20A6"/>
  <outline>
    <contour>
      <point x="36.0" y="228.0" type="line"/>
      <point x="759.0" y="228.0" type="line"/>
      <point x="759.0" y="297.0" type="line"/>
      <point x="36.0" y="297.0" type="line"/>
    </contour>
    <contour>
      <point x="36.0" y="441.5" type="line"/>
      <point x="759.0" y="441.5" type="line"/>
      <point x="759.0" y="510.5" type="line"/>
      <point x="36.0" y="510.5" type="line"/>
    </contour>
    <component base="N" xOffset="67.0"/>
  </outline>
</glyph>
<glyph name="uni20BA" format="1">
  <advance width="533.0"/>
  <unicode hex="20BA"/>
  <outline>
    <contour>
      <point x="35.5" y="416.0" type="line"/>
      <point x="424.5" y="516.0" type="line"/>
      <point x="424.5" y="584.5" type="line"/>
      <point x="35.5" y="484.5" type="line"/>
    </contour>
    <contour>
      <point x="35.5" y="247.0" type="line"/>
      <point x="424.5" y="347.0" type="line"/>
      <point x="424.5" y="415.5" type="line"/>
      <point x="35.5" y="315.5" type="line"/>
    </contour>
    <contour>
      <point x="144.0" y="0.0" type="line"/>
      <point x="334.0" y="0.0" type="line" smooth="yes"/>
      <point x="484.0" y="0.0"/>
      <point x="504.0" y="98.0"/>
      <point x="504.0" y="270.0" type="curve"/>
      <point x="386.5" y="270.0" type="line"/>
      <point x="386.5" y="127.0"/>
      <point x="379.0" y="98.0"/>
      <point x="334.0" y="98.0" type="curve" smooth="yes"/>
      <point x="261.0" y="98.0" type="line"/>
      <point x="261.0" y="740.0" type="line"/>
      <point x="144.0" y="740.0" type="line"/>
    </contour>
  </outline>
</glyph>
<glyph name="arrowleft" format="1">
  <advance width="584.5"/>
  <unicode hex="2190"/>
  <outline>
    <contour>
      <point x="313.5" y="97.5" type="line"/>
      <point x="382.0" y="165.5" type="line"/>
      <point x="172.5" y="358.5" type="line"/>
      <point x="547.5" y="355.5" type="line"/>
      <point x="547.5" y="456.5" type="line"/>
      <point x="172.5" y="453.5" type="line"/>
      <point x="382.0" y="646.5" type="line"/>
      <point x="313.5" y="714.5" type="line"/>
      <point x="23.0" y="423.0" type="line"/>
      <point x="23.0" y="389.0" type="line"/>
    </contour>
  </outline>
</glyph>
<glyph name="arrowup" format="1">
  <advance width="668.0"/>
  <unicode hex="2191"/>
  <outline>
    <contour>
      <point x="283.5" y="140.5" type="line"/>
      <point x="384.5" y="140.5" type="line"/>
      <point x="381.5" y="514.5" type="line"/>
      <point x="574.5" y="306.0" type="line"/>
      <point x="642.5" y="374.5" type="line"/>
      <point x="351.0" y="665.0" type="line"/>
      <point x="317.0" y="665.0" type="line"/>
      <point x="25.5" y="374.5" type="line"/>
      <point x="93.5" y="306.0" type="line"/>
      <point x="286.5" y="514.5" type="line"/>
    </contour>
  </outline>
</glyph>
<glyph name="arrowdown" format="1">
  <advance width="664.5"/>
  <unicode hex="2193"/>
  <outline>
    <contour>
      <point x="315.0" y="140.5" type="line"/>
      <point x="349.0" y="140.5" type="line"/>
      <point x="640.5" y="431.0" type="line"/>
      <point x="572.5" y="499.5" type="line"/>
      <point x="379.5" y="290.0" type="line"/>
      <point x="382.5" y="665.0" type="line"/>
      <point x="281.5" y="665.0" type="line"/>
      <point x="284.5" y="290.0" type="line"/>
      <point x="91.5" y="499.5" type="line"/>
      <point x="23.5" y="431.0" type="line"/>
    </contour>
  </outline>
</glyph>
<glyph name="radical" format="1">
  <advance width="630.0"/>
  <unicode hex="221A"/>
  <outline>
    <contour>
      <point x="289.5" y="0.0" type="line"/>
      <point x="422.5" y="0.0" type="line"/>
      <point x="626.0" y="853.0" type="line"/>
      <point x="522.5" y="853.0" type="line"/>
      <point x="348.5" y="122.0" type="line"/>
      <point x="186.0" y="524.0" type="line"/>
      <point x="6.0" y="448.0" type="line"/>
      <point x="45.0" y="355.0" type="line"/>
      <point x="131.5" y="392.5" type="line"/>
    </contour>
  </outline>
</glyph>
<glyph name="approxequal" format="1">
  <advance width="509.0"/>
  <unicode hex="2248"/>
  <outline>
    <contour>
      <point x="53.0" y="402.0" type="line"/>
      <point x="90.5" y="420.0"/>
      <point x="126.5" y="432.0"/>
      <point x="172.0" y="432.0" type="curve" smooth="yes"/>
      <point x="234.0" y="432.0"/>
      <point x="279.0" y="396.0"/>
      <point x="340.5" y="396.0" type="curve" smooth="yes"/>
      <point x="386.0" y="396.0"/>
      <point x="422.0" y="417.0"/>
      <point x="457.5" y="432.5" type="curve"/>
      <point x="457.5" y="510.0" type="line"/>
      <point x="421.0" y="492.0"/>
      <point x="386.0" y="479.0"/>
      <point x="340.5" y="479.0" type="curve" smooth="yes"/>
      <point x="279.0" y="479.0"/>
      <point x="234.0" y="515.0"/>
      <point x="172.0" y="515.0" type="curve" smooth="yes"/>
      <point x="126.5" y="515.0"/>
      <point x="90.5" y="496.0"/>
      <point x="53.0" y="482.0" type="curve"/>
    </contour>
    <contour>
      <point x="53.0" y="199.5" type="line"/>
      <point x="90.5" y="217.5"/>
      <point x="126.5" y="229.5"/>
      <point x="172.0" y="229.5" type="curve" smooth="yes"/>
      <point x="234.0" y="229.5"/>
      <point x="279.0" y="193.5"/>
      <point x="340.5" y="193.5" type="curve" smooth="yes"/>
      <point x="386.0" y="193.5"/>
      <point x="422.0" y="214.5"/>
      <point x="457.5" y="230.0" type="curve"/>
      <point x="457.5" y="307.5" type="line"/>
      <point x="421.0" y="289.5"/>
      <point x="386.0" y="276.5"/>
      <point x="340.5" y="276.5" type="curve" smooth="yes"/>
      <point x="279.0" y="276.5"/>
      <point x="234.0" y="312.5"/>
      <point x="172.0" y="312.5" type="curve" smooth="yes"/>
      <point x="126.5" y="312.5"/>
      <point x="90.5" y="293.5"/>
      <point x="53.0" y="279.5" type="curve"/>
    </contour>
  </outline>
</glyph>
<glyph name="greaterequal" format="1">
  <advance width="530.5"/>
  <unicode hex="2265"/>
  <outline>
    <contour>
      <point x="59.5" y="202.0" type="line"/>
      <point x="482.5" y="362.5" type="line"/>
      <point x="482.5" y="427.0" type="line"/>
      <point x="395.5" y="412.0" type="line"/>
      <point x="59.5" y="294.5" type="line"/>
    </contour>
    <contour>
      <point x="58.0" y="511.5" type="line"/>
      <point x="395.5" y="394.0" type="line"/>
      <point x="482.5" y="379.0" type="line"/>
      <point x="482.5" y="443.5" type="line"/>
      <point x="58.0" y="604.0" type="line"/>
    </contour>
    <contour>
      <point x="52.0" y="71.0" type="line"/>
      <point x="476.0" y="71.0" type="line"/>
      <point x="476.0" y="155.0" type="line"/>
      <point x="52.0" y="155.0" type="line"/>
    </contour>
  </outline>
</glyph>
<glyph name="AE.sc" format="1">
  <advance width="716.0"/>
  <outline>
    <contour>
      <point x="452.5" y="760.0" type="move" name="topUC"/>
    </contour>
    <contour>
      <point x="7.5" y="0.0" type="line"/>
      <point x="118.0" y="0.0" type="line"/>
      <point x="171.0" y="147.0" type="line"/>
      <point x="350.0" y="147.0" type="line"/>
      <point x="356.5" y="0.0" type="line"/>
      <point x="680.0" y="0.0" type="line"/>
      <point x="680.0" y="89.0" type="line"/>
      <point x="462.0" y="89.0" type="line"/>
      <point x="452.5" y="247.5" type="line"/>
      <point x="655.0" y="247.5" type="line"/>
      <point x="655.0" y="333.5" type="line"/>
      <point x="444.5" y="333.5" type="line"/>
      <point x="435.5" y="488.5" type="line"/>
      <point x="672.5" y="488.5" type="line"/>
      <point x="672.5" y="577.0" type="line"/>
      <point x="211.5" y="577.0" type="line"/>
      <point x="7.5" y="5.0" type="line"/>
    </contour>
    <contour>
      <point x="294.5" y="493.5" type="line"/>
      <point x="334.0" y="493.5" type="line"/>
      <point x="345.5" y="228.5" type="line"/>
      <point x="198.5" y="228.5" type="line"/>
    </contour>
  </outline>
</glyph>
<glyph name="AEacute.sc" format="1">
  <advance width="716.0"/>
  <outline>
    <contour>
      <point x="7.5" y="0.0" type="line"/>
      <point x="118.0" y="0.0" type="line"/>
      <point x="171.0" y="147.0" type="line"/>
      <point x="350.0" y="147.0" type="line"/>
      <point x="356.5" y="0.0" type="line"/>
      <point x="680.0" y="0.0" type="line"/>
      <point x="680.0" y="89.0" type="line"/>
      <point x="462.0" y="89.0" type="line"/>
      <point x="452.5" y="247.5" type="line"/>
      <point x="655.0" y="247.5" type="line"/>
      <point x="655.0" y="333.5" type="line"/>
      <point x="444.5" y="333.5" type="line"/>
      <point x="435.5" y="488.5" type="line"/>
      <point x="672.5" y="488.5" type="line"/>
      <point x="672.5" y="577.0" type="line"/>
      <point x="211.5" y="577.0" type="line"/>
      <point x="7.5" y="5.0" type="line"/>
    </contour>
    <contour>
      <point x="198.5" y="228.5" type="line"/>
      <point x="294.5" y="493.5" type="line"/>
      <point x="334.0" y="493.5" type="line"/>
      <point x="345.5" y="228.5" type="line"/>
    </contour>
    <contour>
      <point x="454.0" y="615.5" type="line"/>
      <point x="547.5" y="750.0" type="line"/>
      <point x="437.5" y="750.0" type="line"/>
      <point x="375.5" y="621.0" type="line"/>
    </contour>
  </outline>
</glyph>
<glyph name="Adieresis.sc" format="1">
  <advance width="532.0"/>
  <outline>
    <contour>
      <point x="168.5" y="627.0" type="curve" smooth="yes"/>
      <point x="210.0" y="627.0"/>
      <point x="230.5" y="644.5"/>
      <point x="230.5" y="686.0" type="curve" smooth="yes"/>
      <point x="230.5" y="727.0"/>
      <point x="210.0" y="745.0"/>
      <point x="168.5" y="745.0" type="curve" smooth="yes"/>
      <point x="127.0" y="745.0"/>
      <point x="107.5" y="727.5"/>
      <point x="107.5" y="686.0" type="curve" smooth="yes"/>
      <point x="107.5" y="645.0"/>
      <point x="127.0" y="627.0"/>
    </contour>
    <contour>
      <point x="365.0" y="627.0" type="curve" smooth="yes"/>
      <point x="406.0" y="627.0"/>
      <point x="427.0" y="644.5"/>
      <point x="427.0" y="686.0" type="curve" smooth="yes"/>
      <point x="427.0" y="727.0"/>
      <point x="406.0" y="745.0"/>
      <point x="365.0" y="745.0" type="curve" smooth="yes"/>
      <point x="323.5" y="745.0"/>
      <point x="303.5" y="727.5"/>
      <point x="303.5" y="686.0" type="curve" smooth="yes"/>
      <point x="303.5" y="645.0"/>
      <point x="323.5" y="627.0"/>
    </contour>
    <contour>
      <point x="6.5" y="0.0" type="line"/>
      <point x="109.0" y="0.0" type="line"/>
      <point x="158.0" y="147.0" type="line"/>
      <point x="373.5" y="147.0" type="line"/>
      <point x="422.5" y="0.0" type="line"/>
      <point x="525.5" y="0.0" type="line"/>
      <point x="525.5" y="5.5" type="line"/>
      <point x="347.0" y="577.0" type="line"/>
      <point x="185.5" y="577.0" type="line"/>
      <point x="6.5" y="5.5" type="line"/>
    </contour>
    <contour>
      <point x="176.0" y="223.5" type="line"/>
      <point x="238.0" y="411.5" type="line"/>
      <point x="261.0" y="494.0" type="line"/>
      <point x="270.5" y="494.0" type="line"/>
      <point x="294.0" y="411.5" type="line"/>
      <point x="355.0" y="223.5" type="line"/>
    </contour>
  </outline>
</glyph>
<glyph name="Ainvertedbreve.sc" format="1">
  <advance width="532.0"/>
  <outline>
    <contour>
      <point x="121.0" y="632.0" type="curve"/>
      <point x="196.5" y="632.0" type="line"/>
      <point x="196.5" y="686.0"/>
      <point x="217.5" y="708.5"/>
      <point x="267.5" y="708.5" type="curve" smooth="yes"/>
      <point x="317.0" y="708.5"/>
      <point x="338.5" y="686.0"/>
      <point x="338.5" y="632.0" type="curve"/>
      <point x="414.5" y="632.0" type="line"/>
      <point x="414.5" y="712.5"/>
      <point x="362.5" y="762.0"/>
      <point x="267.5" y="762.0" type="curve" smooth="yes"/>
      <point x="172.5" y="762.0"/>
      <point x="121.0" y="712.5"/>
    </contour>
    <contour>
      <point x="6.5" y="0.0" type="line"/>
      <point x="109.0" y="0.0" type="line"/>
      <point x="158.0" y="147.0" type="line"/>
      <point x="373.5" y="147.0" type="line"/>
      <point x="422.5" y="0.0" type="line"/>
      <point x="525.5" y="0.0" type="line"/>
      <point x="525.5" y="5.5" type="line"/>
      <point x="347.0" y="577.0" type="line"/>
      <point x="185.5" y="577.0" type="line"/>
      <point x="6.5" y="5.5" type="line"/>
    </contour>
    <contour>
      <point x="176.0" y="223.5" type="line"/>
      <point x="238.0" y="411.5" type="line"/>
      <point x="261.0" y="494.0" type="line"/>
      <point x="270.5" y="494.0" type="line"/>
      <point x="294.0" y="411.5" type="line"/>
      <point x="355.0" y="223.5" type="line"/>
    </contour>
  </outline>
</glyph>
<glyph name="Atilde.sc" format="1">
  <advance width="532.0"/>
  <outline>
    <contour>
      <point x="6.5" y="0.0" type="line"/>
      <point x="109.0" y="0.0" type="line"/>
      <point x="158.0" y="147.0" type="line"/>
      <point x="373.5" y="147.0" type="line"/>
      <point x="422.5" y="0.0" type="line"/>
      <point x="525.5" y="0.0" type="line"/>
      <point x="525.5" y="5.5" type="line"/>
      <point x="347.0" y="577.0" type="line"/>
      <point x="185.5" y="577.0" type="line"/>
      <point x="6.5" y="5.5" type="line"/>
    </contour>
    <contour>
      <point x="175.5" y="223.5" type="line"/>
      <point x="238.0" y="411.5" type="line"/>
      <point x="261.0" y="494.0" type="line"/>
      <point x="270.5" y="494.0" type="line"/>
      <point x="294.0" y="411.5" type="line"/>
      <point x="354.5" y="223.5" type="line"/>
    </contour>
    <contour>
      <point x="137.0" y="638.0" type="line"/>
      <point x="158.0" y="658.5"/>
      <point x="178.5" y="667.5"/>
      <point x="200.5" y="667.5" type="curve" smooth="yes"/>
      <point x="243.5" y="667.5"/>
      <point x="280.0" y="636.5"/>
      <point x="325.5" y="636.5" type="curve" smooth="yes"/>
      <point x="363.0" y="636.5"/>
      <point x="404.5" y="664.5"/>
      <point x="430.5" y="718.5" type="curve"/>
      <point x="408.5" y="735.5" type="line"/>
      <point x="388.5" y="714.0"/>
      <point x="370.0" y="705.5"/>
      <point x="348.5" y="705.5" type="curve" smooth="yes"/>
      <point x="305.0" y="705.5"/>
      <point x="269.0" y="736.0"/>
      <point x="223.5" y="736.0" type="curve" smooth="yes"/>
      <point x="186.5" y="736.0"/>
      <point x="145.0" y="707.0"/>
      <point x="117.0" y="655.5" type="curve"/>
    </contour>
  </outline>
</glyph>
<glyph name="Ccaron.sc" format="1">
  <advance width="452.0"/>
  <outline>
    <contour>
      <point x="306.5" y="-7.5" type="curve" smooth="yes"/>
      <point x="352.0" y="-7.5"/>
      <point x="393.5" y="-1.0"/>
      <point x="420.0" y="7.5" type="curve"/>
      <point x="420.0" y="92.5" type="line"/>
      <point x="388.0" y="86.5"/>
      <point x="348.0" y="83.0"/>
      <point x="318.5" y="83.0" type="curve" smooth="yes"/>
      <point x="197.0" y="83.0"/>
      <point x="148.5" y="130.0"/>
      <point x="148.5" y="288.0" type="curve" smooth="yes"/>
      <point x="148.5" y="448.5"/>
      <point x="195.0" y="494.0"/>
      <point x="320.5" y="494.0" type="curve" smooth="yes"/>
      <point x="351.5" y="494.0"/>
      <point x="388.0" y="491.0"/>
      <point x="420.0" y="486.0" type="curve"/>
      <point x="420.0" y="573.0" type="line"/>
      <point x="378.0" y="580.0"/>
      <point x="339.5" y="584.5"/>
      <point x="305.0" y="584.5" type="curve" smooth="yes"/>
      <point x="122.5" y="584.5"/>
      <point x="36.5" y="493.5"/>
      <point x="36.5" y="288.5" type="curve" smooth="yes"/>
      <point x="36.5" y="85.0"/>
      <point x="123.5" y="-6.5"/>
    </contour>
    <contour>
      <point x="136.5" y="673.5" type="line"/>
      <point x="269.0" y="617.0" type="line"/>
      <point x="401.5" y="673.5" type="line"/>
      <point x="401.5" y="747.5" type="line"/>
      <point x="269.0" y="691.5" type="line"/>
      <point x="136.5" y="747.5" type="line"/>
    </contour>
  </outline>
</glyph>
<glyph name="Ebreve.sc" format="1">
  <advance width="477.5"/>
  <outline>
    <contour>
      <point x="251.5" y="624.0" type="curve" smooth="yes"/>
      <point x="346.5" y="624.0"/>
      <point x="398.5" y="674.0"/>
      <point x="398.5" y="754.5" type="curve"/>
      <point x="323.0" y="754.5" type="line"/>
      <point x="323.0" y="699.5"/>
      <point x="301.0" y="677.0"/>
      <point x="251.5" y="677.0" type="curve" smooth="yes"/>
      <point x="201.5" y="677.0"/>
      <point x="180.5" y="699.5"/>
      <point x="180.5" y="754.5" type="curve"/>
      <point x="105.0" y="754.5" type="line"/>
      <point x="105.0" y="673.5"/>
      <point x="156.5" y="624.0"/>
    </contour>
    <contour>
      <point x="62.5" y="0.0" type="line"/>
      <point x="444.0" y="0.0" type="line"/>
      <point x="444.0" y="89.0" type="line"/>
      <point x="171.0" y="89.0" type="line"/>
      <point x="171.0" y="247.5" type="line"/>
      <point x="408.5" y="247.5" type="line"/>
      <point x="408.5" y="333.5" type="line"/>
      <point x="171.0" y="333.5" type="line"/>
      <point x="171.0" y="488.5" type="line"/>
      <point x="436.5" y="488.5" type="line"/>
      <point x="436.5" y="577.0" type="line"/>
      <point x="62.5" y="577.0" type="line"/>
    </contour>
  </outline>
</glyph>
<glyph name="Egrave.sc" format="1">
  <advance width="477.5"/>
  <outline>
    <contour>
      <point x="62.5" y="0.0" type="line"/>
      <point x="444.0" y="0.0" type="line"/>
      <point x="444.0" y="89.0" type="line"/>
      <point x="171.0" y="89.0" type="line"/>
      <point x="171.0" y="247.5" type="line"/>
      <point x="408.5" y="247.5" type="line"/>
      <point x="408.5" y="333.5" type="line"/>
      <point x="171.0" y="333.5" type="line"/>
      <point x="171.0" y="488.5" type="line"/>
      <point x="436.5" y="488.5" type="line"/>
      <point x="436.5" y="577.0" type="line"/>
      <point x="62.5" y="577.0" type="line"/>
    </contour>
    <contour>
      <point x="209.5" y="615.5" type="line"/>
      <point x="288.5" y="624.0" type="line"/>
      <point x="226.5" y="750.0" type="line"/>
      <point x="117.0" y="750.0" type="line"/>
    </contour>
  </outline>
</glyph>
<glyph name="Eogonek.sc" format="1">
  <advance width="478.0"/>
  <outline>
    <contour>
      <point x="381.5" y="-172.0" type="curve" smooth="yes"/>
      <point x="404.0" y="-172.0"/>
      <point x="422.5" y="-168.0"/>
      <point x="445.0" y="-162.0" type="curve"/>
      <point x="445.0" y="-99.0" type="line"/>
      <point x="430.5" y="-103.5"/>
      <point x="410.0" y="-108.0"/>
      <point x="391.5" y="-108.0" type="curve" smooth="yes"/>
      <point x="369.0" y="-108.0"/>
      <point x="356.5" y="-101.5"/>
      <point x="356.5" y="-86.0" type="curve" smooth="yes"/>
      <point x="356.5" y="-63.5"/>
      <point x="382.0" y="-30.5"/>
      <point x="444.5" y="-7.5" type="curve"/>
      <point x="444.5" y="89.0" type="line"/>
      <point x="171.5" y="89.0" type="line"/>
      <point x="171.5" y="247.5" type="line"/>
      <point x="409.0" y="247.5" type="line"/>
      <point x="409.0" y="333.5" type="line"/>
      <point x="171.5" y="333.5" type="line"/>
      <point x="171.5" y="488.5" type="line"/>
      <point x="437.0" y="488.5" type="line"/>
      <point x="437.0" y="577.0" type="line"/>
      <point x="63.0" y="577.0" type="line"/>
      <point x="63.0" y="0.0" type="line"/>
      <point x="354.5" y="0.0" type="line"/>
      <point x="305.5" y="-32.0"/>
      <point x="284.0" y="-60.0"/>
      <point x="284.0" y="-97.0" type="curve" smooth="yes"/>
      <point x="284.0" y="-145.5"/>
      <point x="318.0" y="-172.0"/>
    </contour>
  </outline>
</glyph>
<glyph name="Etilde.sc" format="1">
  <advance width="477.5"/>
  <outline>
    <contour>
      <point x="121.5" y="638.0" type="line"/>
      <point x="142.5" y="658.5"/>
      <point x="163.0" y="667.5"/>
      <point x="185.0" y="667.5" type="curve" smooth="yes"/>
      <point x="228.0" y="667.5"/>
      <point x="264.5" y="636.5"/>
      <point x="310.0" y="636.5" type="curve" smooth="yes"/>
      <point x="347.5" y="636.5"/>
      <point x="389.0" y="664.5"/>
      <point x="415.0" y="718.5" type="curve"/>
      <point x="393.0" y="735.5" type="line"/>
      <point x="373.5" y="714.0"/>
      <point x="354.5" y="705.5"/>
      <point x="333.0" y="705.5" type="curve" smooth="yes"/>
      <point x="289.5" y="705.5"/>
      <point x="254.0" y="736.0"/>
      <point x="208.0" y="736.0" type="curve" smooth="yes"/>
      <point x="171.0" y="736.0"/>
      <point x="129.5" y="707.0"/>
      <point x="101.5" y="655.5" type="curve"/>
    </contour>
    <contour>
      <point x="62.5" y="0.0" type="line"/>
      <point x="444.0" y="0.0" type="line"/>
      <point x="444.0" y="89.0" type="line"/>
      <point x="171.0" y="89.0" type="line"/>
      <point x="171.0" y="247.5" type="line"/>
      <point x="408.5" y="247.5" type="line"/>
      <point x="408.5" y="333.5" type="line"/>
      <point x="171.0" y="333.5" type="line"/>
      <point x="171.0" y="488.5" type="line"/>
      <point x="436.5" y="488.5" type="line"/>
      <point x="436.5" y="577.0" type="line"/>
      <point x="62.5" y="577.0" type="line"/>
    </contour>
  </outline>
</glyph>
<glyph name="Euro.tab" format="1">
  <advance width="540.0"/>
  <outline>
    <contour>
      <point x="29.5" y="419.0" type="line"/>
      <point x="102.0" y="419.0" type="line"/>
      <point x="101.0" y="403.0"/>
      <point x="100.5" y="386.5"/>
      <point x="100.5" y="369.5" type="curve" smooth="yes"/>
      <point x="100.5" y="352.0"/>
      <point x="100.5" y="336.0"/>
      <point x="102.0" y="320.0" type="curve"/>
      <point x="29.5" y="320.0" type="line"/>
      <point x="29.5" y="251.0" type="line"/>
      <point x="110.5" y="251.0" type="line"/>
      <point x="140.0" y="75.0"/>
      <point x="240.0" y="-8.5"/>
      <point x="415.5" y="-10.0" type="curve" smooth="yes"/>
      <point x="451.0" y="-10.0"/>
      <point x="480.0" y="-6.5"/>
      <point x="503.0" y="1.0" type="curve"/>
      <point x="503.0" y="97.0" type="line"/>
      <point x="479.0" y="91.5"/>
      <point x="451.5" y="88.0"/>
      <point x="428.0" y="88.0" type="curve" smooth="yes"/>
      <point x="310.0" y="88.0"/>
      <point x="248.0" y="135.5"/>
      <point x="227.0" y="251.0" type="curve"/>
      <point x="388.0" y="251.0" type="line"/>
      <point x="408.0" y="320.0" type="line"/>
      <point x="217.5" y="320.0" type="line"/>
      <point x="216.5" y="330.5"/>
      <point x="216.5" y="357.0"/>
      <point x="216.5" y="369.0" type="curve"/>
      <point x="216.5" y="381.0"/>
      <point x="216.5" y="408.5"/>
      <point x="217.5" y="419.0" type="curve"/>
      <point x="420.5" y="419.0" type="line"/>
      <point x="440.5" y="488.0" type="line"/>
      <point x="227.5" y="488.0" type="line"/>
      <point x="247.5" y="606.0"/>
      <point x="308.5" y="650.5"/>
      <point x="429.5" y="650.5" type="curve" smooth="yes"/>
      <point x="449.5" y="650.5"/>
      <point x="465.5" y="649.0"/>
      <point x="487.5" y="646.5" type="curve"/>
      <point x="510.5" y="737.0" type="line"/>
      <point x="483.5" y="744.5"/>
      <point x="454.5" y="749.0"/>
      <point x="416.0" y="749.0" type="curve" smooth="yes"/>
      <point x="238.0" y="749.0"/>
      <point x="139.0" y="667.0"/>
      <point x="110.0" y="488.0" type="curve"/>
      <point x="29.5" y="488.0" type="line"/>
    </contour>
  </outline>
</glyph>
<glyph name="F.sc" format="1">
  <advance width="452.5"/>
  <outline>
    <contour>
      <point x="62.5" y="0.0" type="line"/>
      <point x="171.0" y="0.0" type="line"/>
      <point x="171.0" y="234.5" type="line"/>
      <point x="402.5" y="234.5" type="line"/>
      <point x="402.5" y="325.5" type="line"/>
      <point x="171.0" y="325.5" type="line"/>
      <point x="171.0" y="486.0" type="line"/>
      <point x="424.5" y="486.0" type="line"/>
      <point x="424.5" y="577.0" type="line"/>
      <point x="62.5" y="577.0" type="line"/>
    </contour>
  </outline>
</glyph>
<glyph name="G.sc" format="1">
  <advance width="517.0"/>
  <outline>
    <contour>
      <point x="342.5" y="760.0" type="move" name="topUC"/>
    </contour>
    <contour>
      <point x="342.5" y="0.0" type="move" name="bottom"/>
    </contour>
    <contour>
      <point x="307.0" y="-7.5" type="curve" smooth="yes"/>
      <point x="353.5" y="-7.5"/>
      <point x="400.5" y="-3.5"/>
      <point x="471.0" y="6.5" type="curve"/>
      <point x="471.0" y="293.0" type="line"/>
      <point x="372.5" y="293.0" type="line"/>
      <point x="372.5" y="86.0" type="line"/>
      <point x="356.0" y="84.0"/>
      <point x="327.5" y="83.0"/>
      <point x="319.0" y="83.0" type="curve" smooth="yes"/>
      <point x="194.0" y="83.0"/>
      <point x="148.5" y="135.0"/>
      <point x="148.5" y="288.0" type="curve" smooth="yes"/>
      <point x="148.5" y="441.5"/>
      <point x="197.5" y="494.5"/>
      <point x="339.5" y="494.5" type="curve" smooth="yes"/>
      <point x="373.5" y="494.5"/>
      <point x="414.5" y="490.0"/>
      <point x="466.0" y="481.0" type="curve"/>
      <point x="466.0" y="568.5" type="line"/>
      <point x="418.5" y="579.0"/>
      <point x="367.0" y="584.5"/>
      <point x="329.0" y="584.5" type="curve" smooth="yes"/>
      <point x="128.5" y="584.5"/>
      <point x="36.5" y="489.5"/>
      <point x="36.5" y="288.5" type="curve" smooth="yes"/>
      <point x="36.5" y="88.0"/>
      <point x="122.0" y="-6.5"/>
    </contour>
  </outline>
</glyph>
<glyph name="Hbar.sc" format="1">
  <advance width="613.5"/>
  <outline>
    <contour>
      <point x="5.0" y="422.0" type="line"/>
      <point x="74.0" y="422.0" type="line"/>
      <point x="74.0" y="0.0" type="line"/>
      <point x="182.5" y="0.0" type="line"/>
      <point x="182.5" y="249.0" type="line"/>
      <point x="430.0" y="249.0" type="line"/>
      <point x="430.0" y="0.0" type="line"/>
      <point x="538.5" y="0.0" type="line"/>
      <point x="538.5" y="422.0" type="line"/>
      <point x="614.0" y="422.0" type="line"/>
      <point x="614.0" y="473.5" type="line"/>
      <point x="538.5" y="473.5" type="line"/>
      <point x="538.5" y="577.0" type="line"/>
      <point x="430.0" y="577.0" type="line"/>
      <point x="430.0" y="473.5" type="line"/>
      <point x="182.5" y="473.5" type="line"/>
      <point x="182.5" y="577.0" type="line"/>
      <point x="74.0" y="577.0" type="line"/>
      <point x="74.0" y="473.5" type="line"/>
      <point x="5.0" y="473.5" type="line"/>
    </contour>
    <contour>
      <point x="182.5" y="340.5" type="line"/>
      <point x="182.5" y="422.0" type="line"/>
      <point x="430.0" y="422.0" type="line"/>
      <point x="430.0" y="340.5" type="line"/>
    </contour>
  </outline>
</glyph>
<glyph name="I.sc" format="1">
  <advance width="233.5"/>
  <outline>
    <contour>
      <point x="125.5" y="0.0" type="move" name="ogonek"/>
    </contour>
    <contour>
      <point x="111.5" y="760.0" type="move" name="topUC"/>
    </contour>
    <contour>
      <point x="111.5" y="0.0" type="move" name="bottom"/>
    </contour>
    <contour>
      <point x="62.5" y="0.0" type="line"/>
      <point x="171.0" y="0.0" type="line"/>
      <point x="171.0" y="577.0" type="line"/>
      <point x="62.5" y="577.0" type="line"/>
    </contour>
  </outline>
</glyph>
<glyph name="Iacute.sc" format="1">
  <advance width="233.5"/>
  <outline>
    <contour>
      <point x="62.5" y="0.0" type="line"/>
      <point x="171.0" y="0.0" type="line"/>
      <point x="171.0" y="577.0" type="line"/>
      <point x="62.5" y="577.0" type="line"/>
    </contour>
    <contour>
      <point x="152.5" y="615.5" type="line"/>
      <point x="245.5" y="750.0" type="line"/>
      <point x="136.0" y="750.0" type="line"/>
      <point x="74.0" y="621.0" type="line"/>
    </contour>
  </outline>
</glyph>
<glyph name="Idblgrave.sc" format="1">
  <advance width="233.5"/>
  <outline>
    <contour>
      <point x="62.5" y="0.0" type="line"/>
      <point x="171.0" y="0.0" type="line"/>
      <point x="171.0" y="577.0" type="line"/>
      <point x="62.5" y="577.0" type="line"/>
    </contour>
    <contour>
      <point x="81.5" y="624.0" type="line"/>
      <point x="20.0" y="750.0" type="line"/>
      <point x="-73.0" y="750.0" type="line"/>
      <point x="20.5" y="615.0" type="line"/>
    </contour>
    <contour>
      <point x="228.5" y="624.0" type="line"/>
      <point x="166.5" y="750.0" type="line"/>
      <point x="74.0" y="750.0" type="line"/>
      <point x="167.5" y="615.0" type="line"/>
    </contour>
  </outline>
</glyph>
<glyph name="Iinvertedbreve.sc" format="1">
  <advance width="233.5"/>
  <outline>
    <contour>
      <point x="62.5" y="0.0" type="line"/>
      <point x="171.0" y="0.0" type="line"/>
      <point x="171.0" y="577.0" type="line"/>
      <point x="62.5" y="577.0" type="line"/>
    </contour>
    <contour>
      <point x="265.5" y="632.0" type="line"/>
      <point x="265.5" y="712.5"/>
      <point x="213.0" y="762.0"/>
      <point x="119.0" y="762.0" type="curve" smooth="yes"/>
      <point x="23.0" y="762.0"/>
      <point x="-28.0" y="712.5"/>
      <point x="-28.0" y="632.0" type="curve"/>
      <point x="47.5" y="632.0" type="line"/>
      <point x="47.5" y="686.0"/>
      <point x="68.5" y="708.5"/>
      <point x="119.0" y="708.5" type="curve" smooth="yes"/>
      <point x="168.0" y="708.5"/>
      <point x="189.5" y="686.0"/>
      <point x="189.5" y="632.0" type="curve"/>
    </contour>
  </outline>
</glyph>
<glyph name="Lslash.sc" format="1">
  <advance width="417.5"/>
  <outline>
    <contour>
      <point x="14.5" y="174.5" type="line"/>
      <point x="80.5" y="219.5" type="line"/>
      <point x="80.5" y="0.0" type="line"/>
      <point x="404.0" y="0.0" type="line"/>
      <point x="404.0" y="91.5" type="line"/>
      <point x="189.0" y="91.5" type="line"/>
      <point x="189.0" y="274.5" type="line"/>
      <point x="279.0" y="332.5" type="line"/>
      <point x="279.0" y="415.0" type="line"/>
      <point x="189.0" y="357.5" type="line"/>
      <point x="189.0" y="577.0" type="line"/>
      <point x="80.5" y="577.0" type="line"/>
      <point x="80.5" y="302.5" type="line"/>
      <point x="14.5" y="257.5" type="line"/>
    </contour>
  </outline>
</glyph>
<glyph name="M.sc" format="1">
  <advance width="752.5"/>
  <outline>
    <contour>
      <point x="62.5" y="0.0" type="line"/>
      <point x="163.5" y="0.0" type="line"/>
      <point x="163.5" y="441.0" type="line"/>
      <point x="169.5" y="441.0" type="line"/>
      <point x="205.5" y="340.0" type="line"/>
      <point x="328.0" y="28.5" type="line"/>
      <point x="424.0" y="28.5" type="line"/>
      <point x="547.0" y="340.0" type="line"/>
      <point x="582.5" y="441.0" type="line"/>
      <point x="588.5" y="441.0" type="line"/>
      <point x="588.5" y="0.0" type="line"/>
      <point x="690.0" y="0.0" type="line"/>
      <point x="690.0" y="577.0" type="line"/>
      <point x="537.5" y="577.0" type="line"/>
      <point x="402.5" y="237.0" type="line"/>
      <point x="379.0" y="160.0" type="line"/>
      <point x="372.5" y="160.0" type="line"/>
      <point x="349.5" y="237.0" type="line"/>
      <point x="214.5" y="577.0" type="line"/>
      <point x="62.5" y="577.0" type="line"/>
    </contour>
  </outline>
</glyph>
<glyph name="Ncaron.sc" format="1">
  <advance width="603.5"/>
  <outline>
    <contour>
      <point x="62.5" y="0.0" type="line"/>
      <point x="160.0" y="0.0" type="line"/>
      <point x="160.0" y="402.5" type="line"/>
      <point x="167.0" y="402.0" type="line"/>
      <point x="209.0" y="337.5" type="line"/>
      <point x="449.0" y="0.0" type="line"/>
      <point x="541.0" y="0.0" type="line"/>
      <point x="541.0" y="577.0" type="line"/>
      <point x="443.5" y="577.0" type="line"/>
      <point x="443.5" y="176.5" type="line"/>
      <point x="436.5" y="176.0" type="line"/>
      <point x="395.0" y="240.5" type="line"/>
      <point x="155.0" y="577.0" type="line"/>
      <point x="62.5" y="577.0" type="line"/>
    </contour>
    <contour>
      <point x="305.5" y="617.0" type="line"/>
      <point x="437.5" y="673.5" type="line"/>
      <point x="437.5" y="747.5" type="line"/>
      <point x="305.0" y="691.5" type="line"/>
      <point x="172.5" y="747.5" type="line"/>
      <point x="172.5" y="673.5" type="line"/>
    </contour>
  </outline>
</glyph>
<glyph name="Ocircumflex.sc" format="1">
  <advance width="579.0"/>
  <outline>
    <contour>
      <point x="289.5" y="-8.0" type="curve" smooth="yes"/>
      <point x="459.5" y="-8.0"/>
      <point x="542.5" y="88.5"/>
      <point x="542.5" y="288.0" type="curve" smooth="yes"/>
      <point x="542.5" y="488.5"/>
      <point x="459.5" y="585.0"/>
      <point x="289.5" y="585.0" type="curve" smooth="yes"/>
      <point x="120.0" y="585.0"/>
      <point x="36.5" y="487.0"/>
      <point x="36.5" y="288.0" type="curve" smooth="yes"/>
      <point x="36.5" y="89.5"/>
      <point x="120.0" y="-8.0"/>
    </contour>
    <contour>
      <point x="289.5" y="82.5" type="curve" smooth="yes"/>
      <point x="187.5" y="82.5"/>
      <point x="147.5" y="139.0"/>
      <point x="147.5" y="288.0" type="curve" smooth="yes"/>
      <point x="147.5" y="438.5"/>
      <point x="188.0" y="494.5"/>
      <point x="289.5" y="494.5" type="curve" smooth="yes"/>
      <point x="391.0" y="494.5"/>
      <point x="431.5" y="438.0"/>
      <point x="431.5" y="288.0" type="curve" smooth="yes"/>
      <point x="431.5" y="138.5"/>
      <point x="391.0" y="82.5"/>
    </contour>
    <contour>
      <point x="157.0" y="622.5" type="line"/>
      <point x="289.5" y="678.5" type="line"/>
      <point x="422.0" y="622.5" type="line"/>
      <point x="422.0" y="697.0" type="line"/>
      <point x="290.0" y="753.0" type="line"/>
      <point x="157.0" y="697.0" type="line"/>
    </contour>
  </outline>
</glyph>
<glyph name="Oogonek.sc" format="1">
  <advance width="579.0"/>
  <outline>
    <contour>
      <point x="284.5" y="-167.0" type="curve" smooth="yes"/>
      <point x="307.0" y="-167.0"/>
      <point x="326.0" y="-163.5"/>
      <point x="348.0" y="-158.0" type="curve"/>
      <point x="348.0" y="-94.5" type="line"/>
      <point x="333.0" y="-99.5"/>
      <point x="312.5" y="-104.0"/>
      <point x="295.0" y="-104.0" type="curve" smooth="yes"/>
      <point x="272.0" y="-104.0"/>
      <point x="259.0" y="-97.0"/>
      <point x="259.0" y="-81.5" type="curve" smooth="yes"/>
      <point x="259.0" y="-59.5"/>
      <point x="282.0" y="-29.5"/>
      <point x="335.0" y="-5.5" type="curve"/>
      <point x="474.0" y="10.0"/>
      <point x="542.5" y="106.0"/>
      <point x="542.5" y="288.0" type="curve" smooth="yes"/>
      <point x="542.5" y="488.5"/>
      <point x="459.5" y="585.0"/>
      <point x="289.5" y="585.0" type="curve" smooth="yes"/>
      <point x="120.0" y="585.0"/>
      <point x="36.5" y="487.0"/>
      <point x="36.5" y="288.0" type="curve" smooth="yes"/>
      <point x="36.5" y="106.5"/>
      <point x="105.0" y="9.5"/>
      <point x="244.0" y="-5.0" type="curve"/>
      <point x="205.0" y="-32.5"/>
      <point x="187.5" y="-59.5"/>
      <point x="187.5" y="-92.5" type="curve" smooth="yes"/>
      <point x="187.5" y="-141.5"/>
      <point x="220.5" y="-167.0"/>
    </contour>
    <contour>
      <point x="289.5" y="82.5" type="curve" smooth="yes"/>
      <point x="187.5" y="82.5"/>
      <point x="147.5" y="139.0"/>
      <point x="147.5" y="288.0" type="curve" smooth="yes"/>
      <point x="147.5" y="438.5"/>
      <point x="188.0" y="494.5"/>
      <point x="289.5" y="494.5" type="curve" smooth="yes"/>
      <point x="391.0" y="494.5"/>
      <point x="431.5" y="438.0"/>
      <point x="431.5" y="288.0" type="curve" smooth="yes"/>
      <point x="431.5" y="138.5"/>
      <point x="391.0" y="82.5"/>
    </contour>
  </outline>
</glyph>
<glyph name="Oslashacute.sc" format="1">
  <advance width="586.5"/>
  <outline>
    <contour>
      <point x="15.0" y="0.0" type="line"/>
      <point x="98.5" y="0.0" type="line"/>
      <point x="132.0" y="43.0" type="line"/>
      <point x="172.0" y="8.5"/>
      <point x="225.0" y="-8.0"/>
      <point x="293.0" y="-8.0" type="curve" smooth="yes"/>
      <point x="463.0" y="-8.0"/>
      <point x="546.5" y="88.5"/>
      <point x="546.5" y="288.0" type="curve" smooth="yes"/>
      <point x="546.5" y="374.0"/>
      <point x="531.0" y="441.0"/>
      <point x="500.0" y="489.5" type="curve"/>
      <point x="572.5" y="577.0" type="line"/>
      <point x="489.0" y="577.0" type="line"/>
      <point x="454.5" y="534.0" type="line"/>
      <point x="415.0" y="567.5"/>
      <point x="361.0" y="585.0"/>
      <point x="293.0" y="585.0" type="curve" smooth="yes"/>
      <point x="123.5" y="585.0"/>
      <point x="40.0" y="487.0"/>
      <point x="40.0" y="288.0" type="curve" smooth="yes"/>
      <point x="40.0" y="202.0"/>
      <point x="55.0" y="135.0"/>
      <point x="86.5" y="86.5" type="curve"/>
    </contour>
    <contour>
      <point x="293.0" y="82.5" type="curve" smooth="yes"/>
      <point x="250.0" y="82.5"/>
      <point x="219.0" y="93.5"/>
      <point x="197.0" y="118.0" type="curve"/>
      <point x="420.0" y="396.0" type="line"/>
      <point x="430.0" y="368.5"/>
      <point x="435.0" y="332.5"/>
      <point x="435.0" y="288.0" type="curve" smooth="yes"/>
      <point x="435.0" y="138.5"/>
      <point x="395.0" y="82.5"/>
    </contour>
    <contour>
      <point x="326.5" y="615.5" type="line"/>
      <point x="419.0" y="750.0" type="line"/>
      <point x="309.5" y="750.0" type="line"/>
      <point x="247.5" y="621.0" type="line"/>
    </contour>
    <contour>
      <point x="151.0" y="288.0" type="curve" smooth="yes"/>
      <point x="151.0" y="438.5"/>
      <point x="191.5" y="494.5"/>
      <point x="293.0" y="494.5" type="curve" smooth="yes"/>
      <point x="335.0" y="494.5"/>
      <point x="367.0" y="482.5"/>
      <point x="389.0" y="457.5" type="curve"/>
      <point x="165.5" y="179.0" type="line"/>
      <point x="155.5" y="206.5"/>
      <point x="151.0" y="242.5"/>
    </contour>
  </outline>
</glyph>
<glyph name="P.sc" format="1">
  <advance width="508.5"/>
  <outline>
    <contour>
      <point x="62.5" y="0.0" type="line"/>
      <point x="171.0" y="0.0" type="line"/>
      <point x="171.0" y="181.0" type="line"/>
      <point x="185.0" y="179.5"/>
      <point x="205.5" y="179.5"/>
      <point x="217.5" y="179.5" type="curve" smooth="yes"/>
      <point x="402.5" y="179.5"/>
      <point x="482.5" y="240.5"/>
      <point x="482.5" y="381.5" type="curve" smooth="yes"/>
      <point x="482.5" y="524.5"/>
      <point x="402.5" y="585.5"/>
      <point x="216.5" y="585.5" type="curve" smooth="yes"/>
      <point x="167.0" y="585.5"/>
      <point x="115.0" y="581.5"/>
      <point x="62.5" y="573.0" type="curve"/>
    </contour>
    <contour>
      <point x="234.0" y="265.0" type="curve" smooth="yes"/>
      <point x="215.0" y="265.0"/>
      <point x="189.0" y="267.0"/>
      <point x="171.0" y="268.5" type="curve"/>
      <point x="171.0" y="494.0" type="line"/>
      <point x="189.5" y="496.5"/>
      <point x="215.0" y="498.5"/>
      <point x="235.5" y="498.5" type="curve" smooth="yes"/>
      <point x="337.5" y="498.5"/>
      <point x="376.5" y="465.5"/>
      <point x="376.5" y="381.0" type="curve" smooth="yes"/>
      <point x="376.5" y="296.0"/>
      <point x="336.0" y="265.0"/>
    </contour>
  </outline>
</glyph>
<glyph name="Q.sc" format="1">
  <advance width="577.5"/>
  <outline>
    <contour>
      <point x="496.0" y="-102.0" type="curve"/>
      <point x="552.0" y="-16.0" type="line"/>
      <point x="453.0" y="-10.5"/>
      <point x="392.5" y="-2.5"/>
      <point x="332.5" y="15.5" type="curve"/>
      <point x="332.5" y="24.0" type="line"/>
      <point x="472.5" y="47.0"/>
      <point x="541.0" y="134.0"/>
      <point x="541.0" y="288.0" type="curve" smooth="yes"/>
      <point x="541.0" y="487.5"/>
      <point x="459.0" y="585.0"/>
      <point x="288.5" y="585.0" type="curve" smooth="yes"/>
      <point x="118.0" y="585.0"/>
      <point x="35.5" y="488.0"/>
      <point x="35.5" y="288.0" type="curve" smooth="yes"/>
      <point x="35.5" y="54.0"/>
      <point x="153.0" y="-28.5"/>
    </contour>
    <contour>
      <point x="288.5" y="80.0" type="curve" smooth="yes"/>
      <point x="183.5" y="80.0"/>
      <point x="144.0" y="135.0"/>
      <point x="144.0" y="288.0" type="curve" smooth="yes"/>
      <point x="144.0" y="442.0"/>
      <point x="184.0" y="497.5"/>
      <point x="288.5" y="497.5" type="curve" smooth="yes"/>
      <point x="391.5" y="497.5"/>
      <point x="432.5" y="441.5"/>
      <point x="432.5" y="288.0" type="curve" smooth="yes"/>
      <point x="432.5" y="135.0"/>
      <point x="393.0" y="80.0"/>
    </contour>
  </outline>
</glyph>
<glyph name="R.sc" format="1">
  <advance width="519.0"/>
  <outline>
    <contour>
      <point x="272.5" y="760.0" type="move" name="topUC"/>
    </contour>
    <contour>
      <point x="277.5" y="0.0" type="move" name="bottom"/>
    </contour>
    <contour>
      <point x="384.0" y="0.0" type="line"/>
      <point x="498.0" y="0.0" type="line"/>
      <point x="373.0" y="222.5" type="line"/>
      <point x="447.5" y="249.5"/>
      <point x="482.5" y="304.0"/>
      <point x="482.5" y="391.0" type="curve" smooth="yes"/>
      <point x="482.5" y="527.0"/>
      <point x="402.5" y="585.5"/>
      <point x="216.5" y="585.5" type="curve" smooth="yes"/>
      <point x="164.0" y="585.5"/>
      <point x="112.0" y="581.5"/>
      <point x="62.5" y="573.0" type="curve"/>
      <point x="62.5" y="0.0" type="line"/>
      <point x="171.0" y="0.0" type="line"/>
      <point x="171.0" y="202.0" type="line"/>
      <point x="190.0" y="201.5"/>
      <point x="208.5" y="201.0"/>
      <point x="226.5" y="201.0" type="curve" smooth="yes"/>
      <point x="240.0" y="201.0"/>
      <point x="264.5" y="201.5"/>
      <point x="275.5" y="203.5" type="curve"/>
    </contour>
    <contour>
      <point x="232.5" y="284.5" type="curve"/>
      <point x="220.0" y="284.5"/>
      <point x="186.5" y="285.0"/>
      <point x="171.0" y="287.0" type="curve"/>
      <point x="171.0" y="493.5" type="line"/>
      <point x="193.0" y="496.0"/>
      <point x="218.0" y="498.0"/>
      <point x="234.0" y="498.0" type="curve" smooth="yes"/>
      <point x="338.0" y="498.0"/>
      <point x="376.0" y="470.0"/>
      <point x="376.0" y="391.0" type="curve" smooth="yes"/>
      <point x="376.0" y="312.0"/>
      <point x="337.5" y="284.5"/>
    </contour>
  </outline>
</glyph>
<glyph name="Scircumflex.sc" format="1">
  <advance width="450.0"/>
  <outline>
    <contour>
      <point x="217.5" y="-10.0" type="curve" smooth="yes"/>
      <point x="344.5" y="-10.0"/>
      <point x="422.5" y="55.5"/>
      <point x="422.5" y="162.0" type="curve" smooth="yes"/>
      <point x="422.5" y="248.0"/>
      <point x="379.0" y="293.5"/>
      <point x="272.0" y="328.0" type="curve" smooth="yes"/>
      <point x="193.5" y="353.5"/>
      <point x="150.0" y="372.5"/>
      <point x="150.0" y="419.5" type="curve" smooth="yes"/>
      <point x="150.0" y="467.5"/>
      <point x="189.0" y="496.5"/>
      <point x="255.5" y="496.5" type="curve" smooth="yes"/>
      <point x="288.0" y="496.5"/>
      <point x="342.5" y="488.5"/>
      <point x="393.5" y="477.0" type="curve"/>
      <point x="396.5" y="565.0" type="line"/>
      <point x="341.5" y="578.5"/>
      <point x="293.5" y="585.0"/>
      <point x="247.0" y="585.0" type="curve" smooth="yes"/>
      <point x="117.5" y="585.0"/>
      <point x="41.0" y="521.0"/>
      <point x="41.0" y="412.5" type="curve" smooth="yes"/>
      <point x="41.0" y="326.5"/>
      <point x="85.0" y="280.5"/>
      <point x="193.0" y="250.0" type="curve" smooth="yes"/>
      <point x="268.5" y="226.0"/>
      <point x="313.5" y="207.5"/>
      <point x="313.5" y="158.5" type="curve" smooth="yes"/>
      <point x="313.5" y="108.0"/>
      <point x="275.0" y="81.0"/>
      <point x="200.0" y="81.0" type="curve" smooth="yes"/>
      <point x="150.0" y="81.0"/>
      <point x="77.5" y="94.5"/>
      <point x="36.5" y="111.0" type="curve"/>
      <point x="33.5" y="19.0" type="line"/>
      <point x="90.0" y="1.0"/>
      <point x="159.5" y="-10.0"/>
    </contour>
    <contour>
      <point x="98.0" y="622.5" type="line"/>
      <point x="231.0" y="678.5" type="line"/>
      <point x="363.0" y="622.5" type="line"/>
      <point x="363.0" y="697.0" type="line"/>
      <point x="231.0" y="753.0" type="line"/>
      <point x="98.0" y="697.0" type="line"/>
    </contour>
  </outline>
</glyph>
<glyph name="T.sc" format="1">
  <advance width="459.5"/>
  <outline>
    <contour>
      <point x="233.5" y="760.0" type="move" name="topUC"/>
    </contour>
    <contour>
      <point x="234.5" y="0.0" type="move" name="bottom"/>
    </contour>
    <contour>
      <point x="175.5" y="0.0" type="line"/>
      <point x="284.0" y="0.0" type="line"/>
      <point x="284.0" y="484.0" type="line"/>
      <point x="442.0" y="484.0" type="line"/>
      <point x="442.0" y="577.0" type="line"/>
      <point x="17.5" y="577.0" type="line"/>
      <point x="17.5" y="484.0" type="line"/>
      <point x="175.5" y="484.0" type="line"/>
    </contour>
  </outline>
</glyph>
<glyph name="Thorn.sc" format="1">
  <advance width="510.0"/>
  <outline>
    <contour>
      <point x="62.5" y="0.0" type="line"/>
      <point x="171.0" y="0.0" type="line"/>
      <point x="171.0" y="87.0" type="line"/>
      <point x="185.0" y="85.5"/>
      <point x="206.0" y="85.0"/>
      <point x="218.0" y="85.0" type="curve" smooth="yes"/>
      <point x="403.0" y="85.0"/>
      <point x="483.0" y="145.5"/>
      <point x="483.0" y="286.5" type="curve" smooth="yes"/>
      <point x="483.0" y="429.0"/>
      <point x="402.5" y="490.0"/>
      <point x="216.5" y="490.0" type="curve" smooth="yes"/>
      <point x="202.5" y="490.0"/>
      <point x="187.0" y="488.5"/>
      <point x="171.0" y="486.0" type="curve"/>
      <point x="171.0" y="577.0" type="line"/>
      <point x="62.5" y="577.0" type="line"/>
    </contour>
    <contour>
      <point x="232.0" y="173.5" type="curve" smooth="yes"/>
      <point x="212.0" y="173.5"/>
      <point x="191.5" y="174.5"/>
      <point x="171.0" y="175.5" type="curve"/>
      <point x="171.0" y="397.0" type="line"/>
      <point x="193.5" y="399.0"/>
      <point x="214.5" y="400.0"/>
      <point x="233.0" y="400.0" type="curve" smooth="yes"/>
      <point x="335.0" y="400.0"/>
      <point x="372.0" y="369.0"/>
      <point x="372.0" y="286.5" type="curve" smooth="yes"/>
      <point x="372.0" y="203.5"/>
      <point x="333.5" y="173.5"/>
    </contour>
  </outline>
</glyph>
<glyph name="Ubreve.sc" format="1">
  <advance width="587.0"/>
  <outline>
    <contour>
      <point x="294.0" y="-8.0" type="curve" smooth="yes"/>
      <point x="466.0" y="-8.0"/>
      <point x="529.5" y="66.0"/>
      <point x="529.5" y="223.5" type="curve" smooth="yes"/>
      <point x="529.5" y="576.5" type="line"/>
      <point x="421.0" y="576.5" type="line"/>
      <point x="421.0" y="229.0" type="line" smooth="yes"/>
      <point x="421.0" y="124.5"/>
      <point x="385.5" y="84.5"/>
      <point x="294.0" y="84.5" type="curve" smooth="yes"/>
      <point x="203.5" y="84.5"/>
      <point x="166.0" y="126.0"/>
      <point x="166.0" y="229.0" type="curve" smooth="yes"/>
      <point x="166.0" y="576.5" type="line"/>
      <point x="57.5" y="576.5" type="line"/>
      <point x="57.5" y="223.5" type="line" smooth="yes"/>
      <point x="57.5" y="67.0"/>
      <point x="122.0" y="-8.0"/>
    </contour>
    <contour>
      <point x="291.0" y="624.0" type="curve" smooth="yes"/>
      <point x="385.5" y="624.0"/>
      <point x="438.0" y="674.0"/>
      <point x="438.0" y="754.5" type="curve"/>
      <point x="362.0" y="754.5" type="line"/>
      <point x="362.0" y="699.5"/>
      <point x="340.5" y="677.0"/>
      <point x="291.0" y="677.0" type="curve" smooth="yes"/>
      <point x="240.5" y="677.0"/>
      <point x="219.5" y="699.5"/>
      <point x="219.5" y="754.5" type="curve"/>
      <point x="144.0" y="754.5" type="line"/>
      <point x="144.0" y="673.5"/>
      <point x="195.5" y="624.0"/>
    </contour>
  </outline>
</glyph>
<glyph name="Uhungarumlaut.sc" format="1">
  <advance width="587.0"/>
  <outline>
    <contour>
      <point x="294.0" y="-8.0" type="curve" smooth="yes"/>
      <point x="466.0" y="-8.0"/>
      <point x="529.5" y="66.0"/>
      <point x="529.5" y="223.5" type="curve" smooth="yes"/>
      <point x="529.5" y="576.5" type="line"/>
      <point x="421.0" y="576.5" type="line"/>
      <point x="421.0" y="229.0" type="line" smooth="yes"/>
      <point x="421.0" y="124.5"/>
      <point x="385.5" y="84.5"/>
      <point x="294.0" y="84.5" type="curve" smooth="yes"/>
      <point x="203.5" y="84.5"/>
      <point x="166.0" y="126.0"/>
      <point x="166.0" y="229.0" type="curve" smooth="yes"/>
      <point x="166.0" y="576.5" type="line"/>
      <point x="57.5" y="576.5" type="line"/>
      <point x="57.5" y="223.5" type="line" smooth="yes"/>
      <point x="57.5" y="67.0"/>
      <point x="122.0" y="-8.0"/>
    </contour>
    <contour>
      <point x="235.5" y="615.0" type="line"/>
      <point x="328.0" y="750.0" type="line"/>
      <point x="235.5" y="750.0" type="line"/>
      <point x="174.0" y="624.0" type="line"/>
    </contour>
    <contour>
      <point x="382.0" y="615.0" type="line"/>
      <point x="475.5" y="750.0" type="line"/>
      <point x="382.5" y="750.0" type="line"/>
      <point x="320.5" y="624.0" type="line"/>
    </contour>
  </outline>
</glyph>
<glyph name="Utilde.sc" format="1">
  <advance width="587.0"/>
  <outline>
    <contour>
      <point x="294.0" y="-8.0" type="curve" smooth="yes"/>
      <point x="466.0" y="-8.0"/>
      <point x="529.5" y="66.0"/>
      <point x="529.5" y="223.5" type="curve" smooth="yes"/>
      <point x="529.5" y="576.5" type="line"/>
      <point x="421.0" y="576.5" type="line"/>
      <point x="421.0" y="229.0" type="line" smooth="yes"/>
      <point x="421.0" y="124.5"/>
      <point x="385.5" y="84.5"/>
      <point x="294.0" y="84.5" type="curve" smooth="yes"/>
      <point x="203.5" y="84.5"/>
      <point x="166.0" y="126.0"/>
      <point x="166.0" y="229.0" type="curve" smooth="yes"/>
      <point x="166.0" y="576.5" type="line"/>
      <point x="57.5" y="576.5" type="line"/>
      <point x="57.5" y="223.5" type="line" smooth="yes"/>
      <point x="57.5" y="67.0"/>
      <point x="122.0" y="-8.0"/>
    </contour>
    <contour>
      <point x="160.5" y="638.0" type="line"/>
      <point x="181.5" y="658.5"/>
      <point x="202.0" y="667.5"/>
      <point x="224.0" y="667.5" type="curve" smooth="yes"/>
      <point x="267.0" y="667.5"/>
      <point x="303.5" y="636.5"/>
      <point x="349.0" y="636.5" type="curve" smooth="yes"/>
      <point x="386.5" y="636.5"/>
      <point x="428.0" y="664.5"/>
      <point x="454.0" y="718.5" type="curve"/>
      <point x="432.0" y="735.5" type="line"/>
      <point x="412.0" y="714.0"/>
      <point x="393.0" y="705.5"/>
      <point x="372.0" y="705.5" type="curve" smooth="yes"/>
      <point x="328.0" y="705.5"/>
      <point x="292.5" y="736.0"/>
      <point x="247.0" y="736.0" type="curve" smooth="yes"/>
      <point x="210.0" y="736.0"/>
      <point x="168.5" y="707.0"/>
      <point x="140.0" y="655.5" type="curve"/>
    </contour>
  </outline>
</glyph>
<glyph name="Wdieresis.sc" format="1">
  <advance width="812.0"/>
  <outline>
    <contour>
      <point x="163.0" y="0.0" type="line"/>
      <point x="293.5" y="0.0" type="line"/>
      <point x="383.5" y="325.5" type="line"/>
      <point x="404.0" y="424.5" type="line"/>
      <point x="411.0" y="424.5" type="line"/>
      <point x="430.0" y="325.5" type="line"/>
      <point x="515.5" y="0.0" type="line"/>
      <point x="646.0" y="0.0" type="line"/>
      <point x="802.0" y="577.0" type="line"/>
      <point x="682.0" y="577.0" type="line"/>
      <point x="599.5" y="213.0" type="line"/>
      <point x="581.0" y="129.5" type="line"/>
      <point x="571.5" y="129.5" type="line"/>
      <point x="553.0" y="213.0" type="line"/>
      <point x="461.5" y="577.0" type="line"/>
      <point x="354.5" y="577.0" type="line"/>
      <point x="257.5" y="213.0" type="line"/>
      <point x="238.5" y="129.5" type="line"/>
      <point x="229.0" y="129.5" type="line"/>
      <point x="211.5" y="213.0" type="line"/>
      <point x="133.5" y="577.0" type="line"/>
      <point x="13.0" y="577.0" type="line"/>
    </contour>
    <contour>
      <point x="307.0" y="627.0" type="curve" smooth="yes"/>
      <point x="348.5" y="627.0"/>
      <point x="369.0" y="644.5"/>
      <point x="369.0" y="686.0" type="curve" smooth="yes"/>
      <point x="369.0" y="727.0"/>
      <point x="348.5" y="745.0"/>
      <point x="307.0" y="745.0" type="curve" smooth="yes"/>
      <point x="265.0" y="745.0"/>
      <point x="246.0" y="727.5"/>
      <point x="246.0" y="686.0" type="curve" smooth="yes"/>
      <point x="246.0" y="645.0"/>
      <point x="265.0" y="627.0"/>
    </contour>
    <contour>
      <point x="503.5" y="627.0" type="curve" smooth="yes"/>
      <point x="544.5" y="627.0"/>
      <point x="565.5" y="644.5"/>
      <point x="565.5" y="686.0" type="curve" smooth="yes"/>
      <point x="565.5" y="727.0"/>
      <point x="544.5" y="745.0"/>
      <point x="503.5" y="745.0" type="curve" smooth="yes"/>
      <point x="462.0" y="745.0"/>
      <point x="442.0" y="727.5"/>
      <point x="442.0" y="686.0" type="curve" smooth="yes"/>
      <point x="442.0" y="645.0"/>
      <point x="462.0" y="627.0"/>
    </contour>
  </outline>
</glyph>
<glyph name="X.sc" format="1">
  <advance width="537.0"/>
  <outline>
    <contour>
      <point x="1.5" y="0.0" type="line"/>
      <point x="119.0" y="0.0" type="line"/>
      <point x="257.0" y="209.0" type="line"/>
      <point x="263.5" y="219.0" type="line"/>
      <point x="265.0" y="219.0" type="line"/>
      <point x="271.5" y="209.0" type="line"/>
      <point x="414.5" y="0.0" type="line"/>
      <point x="535.5" y="0.0" type="line"/>
      <point x="337.0" y="301.5" type="line"/>
      <point x="522.5" y="577.0" type="line"/>
      <point x="405.5" y="577.0" type="line"/>
      <point x="279.5" y="386.5" type="line"/>
      <point x="273.0" y="374.5" type="line"/>
      <point x="271.5" y="374.5" type="line"/>
      <point x="265.0" y="386.5" type="line"/>
      <point x="136.5" y="577.0" type="line"/>
      <point x="14.0" y="577.0" type="line"/>
      <point x="198.5" y="296.0" type="line"/>
    </contour>
  </outline>
</glyph>
<glyph name="Yacute.sc" format="1">
  <advance width="537.5"/>
  <outline>
    <contour>
      <point x="214.5" y="0.0" type="line"/>
      <point x="323.5" y="0.0" type="line"/>
      <point x="323.5" y="196.0" type="line"/>
      <point x="536.0" y="577.0" type="line"/>
      <point x="416.5" y="577.0" type="line"/>
      <point x="287.5" y="346.0" type="line"/>
      <point x="273.5" y="304.5" type="line"/>
      <point x="264.5" y="304.5" type="line"/>
      <point x="251.0" y="346.0" type="line"/>
      <point x="122.5" y="577.0" type="line"/>
      <point x="0.5" y="577.0" type="line"/>
      <point x="214.5" y="195.5" type="line"/>
    </contour>
    <contour>
      <point x="305.0" y="615.5" type="line"/>
      <point x="398.0" y="750.0" type="line"/>
      <point x="288.5" y="750.0" type="line"/>
      <point x="226.5" y="621.0" type="line"/>
    </contour>
  </outline>
</glyph>
<glyph name="Zdotaccent.sc" format="1">
  <advance width="467.0"/>
  <outline>
    <contour>
      <point x="30.0" y="0.0" type="line"/>
      <point x="438.0" y="0.0" type="line"/>
      <point x="438.0" y="91.5" type="line"/>
      <point x="153.0" y="91.5" type="line"/>
      <point x="153.0" y="97.5" type="line"/>
      <point x="427.5" y="481.0" type="line"/>
      <point x="427.5" y="577.0" type="line"/>
      <point x="40.0" y="577.0" type="line"/>
      <point x="40.0" y="485.0" type="line"/>
      <point x="304.0" y="485.0" type="line"/>
      <point x="304.0" y="479.0" type="line"/>
      <point x="30.0" y="96.0" type="line"/>
    </contour>
    <contour>
      <point x="238.5" y="623.0" type="curve" smooth="yes"/>
      <point x="279.5" y="623.0"/>
      <point x="301.0" y="640.5"/>
      <point x="301.0" y="682.5" type="curve" smooth="yes"/>
      <point x="301.0" y="723.5"/>
      <point x="279.5" y="740.5"/>
      <point x="238.5" y="740.5" type="curve" smooth="yes"/>
      <point x="196.5" y="740.5"/>
      <point x="177.0" y="723.5"/>
      <point x="177.0" y="682.5" type="curve" smooth="yes"/>
      <point x="177.0" y="640.5"/>
      <point x="196.5" y="623.0"/>
    </contour>
  </outline>
</glyph>
<glyph name="acute.cap" format="1">
  <advance width="237.0"/>
  <outline>
    <contour>
      <point x="75.0" y="782.5" type="move" name="_topUC"/>
    </contour>
    <contour>
      <point x="111.5" y="787.0" type="line"/>
      <point x="215.5" y="949.0" type="line"/>
      <point x="99.5" y="949.0" type="line"/>
      <point x="28.0" y="793.5" type="line"/>
    </contour>
  </outline>
</glyph>
<glyph name="bracketleft.sc" format="1">
  <advance width="303.5"/>
  <outline>
    <contour>
      <point x="72.5" y="-125.0" type="line"/>
      <point x="271.5" y="-125.0" type="line"/>
      <point x="271.5" y="-54.0" type="line"/>
      <point x="156.5" y="-54.0" type="line"/>
      <point x="156.5" y="606.5" type="line"/>
      <point x="271.5" y="606.5" type="line"/>
      <point x="271.5" y="677.0" type="line"/>
      <point x="72.5" y="677.0" type="line"/>
    </contour>
  </outline>
</glyph>
<glyph name="caron.alt" format="1">
  <advance width="198.0"/>
  <outline>
    <contour>
      <point x="75.0" y="741.0" type="move" name="_caronalt"/>
    </contour>
    <contour>
      <point x="58.0" y="580.0" type="line"/>
      <point x="115.5" y="580.0" type="line"/>
      <point x="149.0" y="808.0" type="line"/>
      <point x="58.0" y="808.0" type="line"/>
    </contour>
  </outline>
</glyph>
<glyph name="circumflex.cap" format="1">
  <advance width="342.0"/>
  <outline>
    <contour>
      <point x="171.0" y="782.5" type="move" name="_topUC"/>
    </contour>
    <contour>
      <point x="25.0" y="802.5" type="line"/>
      <point x="171.0" y="874.0" type="line"/>
      <point x="317.0" y="802.5" type="line"/>
      <point x="317.0" y="885.0" type="line"/>
      <point x="171.5" y="956.5" type="line"/>
      <point x="25.0" y="885.0" type="line"/>
    </contour>
  </outline>
</glyph>
<glyph name="divide.tab" format="1">
  <advance width="540.0"/>
  <outline>
    <contour>
      <point x="273.0" y="140.0" type="curve" smooth="yes"/>
      <point x="308.5" y="140.0"/>
      <point x="333.5" y="160.0"/>
      <point x="333.5" y="198.5" type="curve" smooth="yes"/>
      <point x="333.5" y="236.0"/>
      <point x="308.5" y="255.5"/>
      <point x="273.0" y="255.5" type="curve" smooth="yes"/>
      <point x="237.0" y="255.5"/>
      <point x="212.5" y="236.5"/>
      <point x="212.5" y="198.5" type="curve" smooth="yes"/>
      <point x="212.5" y="160.0"/>
      <point x="237.0" y="140.0"/>
    </contour>
    <contour>
      <point x="43.5" y="328.0" type="line"/>
      <point x="496.5" y="328.0" type="line"/>
      <point x="496.5" y="412.0" type="line"/>
      <point x="43.5" y="412.0" type="line"/>
    </contour>
    <contour>
      <point x="273.0" y="480.5" type="curve" smooth="yes"/>
      <point x="308.5" y="480.5"/>
      <point x="333.5" y="499.5"/>
      <point x="333.5" y="537.0" type="curve" smooth="yes"/>
      <point x="333.5" y="575.5"/>
      <point x="308.5" y="596.0"/>
      <point x="273.0" y="596.0" type="curve" smooth="yes"/>
      <point x="237.0" y="596.0"/>
      <point x="212.5" y="576.0"/>
      <point x="212.5" y="537.0" type="curve" smooth="yes"/>
      <point x="212.5" y="499.5"/>
      <point x="237.0" y="480.5"/>
    </contour>
  </outline>
</glyph>
<glyph name="dollar.tab" format="1">
  <advance width="540.0"/>
  <outline>
    <contour>
      <point x="239.0" y="-140.0" type="line"/>
      <point x="335.0" y="-140.0" type="line"/>
      <point x="335.0" y="-4.5" type="line"/>
      <point x="438.0" y="18.5"/>
      <point x="499.5" y="92.0"/>
      <point x="499.5" y="201.0" type="curve" smooth="yes"/>
      <point x="499.5" y="322.0"/>
      <point x="435.5" y="372.5"/>
      <point x="322.5" y="415.5" type="curve" smooth="yes"/>
      <point x="225.5" y="452.0"/>
      <point x="171.0" y="478.0"/>
      <point x="171.0" y="544.0" type="curve" smooth="yes"/>
      <point x="171.0" y="613.5"/>
      <point x="221.0" y="655.5"/>
      <point x="304.0" y="655.5" type="curve" smooth="yes"/>
      <point x="343.5" y="655.5"/>
      <point x="406.0" y="646.5"/>
      <point x="465.0" y="632.5" type="curve"/>
      <point x="469.5" y="727.0" type="line"/>
      <point x="419.0" y="739.0"/>
      <point x="375.0" y="746.5"/>
      <point x="331.5" y="749.0" type="curve"/>
      <point x="331.5" y="880.0" type="line"/>
      <point x="235.5" y="880.0" type="line"/>
      <point x="235.5" y="745.0" type="line"/>
      <point x="123.0" y="727.5"/>
      <point x="54.5" y="653.0"/>
      <point x="54.5" y="544.0" type="curve" smooth="yes"/>
      <point x="54.5" y="410.5"/>
      <point x="124.0" y="365.0"/>
      <point x="233.5" y="327.0" type="curve" smooth="yes"/>
      <point x="329.5" y="293.5"/>
      <point x="382.5" y="264.0"/>
      <point x="382.5" y="197.5" type="curve" smooth="yes"/>
      <point x="382.5" y="124.5"/>
      <point x="333.0" y="84.5"/>
      <point x="241.5" y="84.5" type="curve" smooth="yes"/>
      <point x="182.5" y="84.5"/>
      <point x="94.0" y="101.5"/>
      <point x="49.0" y="121.0" type="curve"/>
      <point x="45.0" y="23.5" type="line"/>
      <point x="99.5" y="4.0"/>
      <point x="174.0" y="-9.5"/>
      <point x="239.0" y="-11.5" type="curve"/>
    </contour>
  </outline>
</glyph>
<glyph name="eight.numerator" format="1">
  <advance width="402.5"/>
  <outline>
    <contour>
      <point x="201.0" y="198.0" type="curve" smooth="yes"/>
      <point x="306.5" y="198.0"/>
      <point x="371.5" y="256.0"/>
      <point x="371.5" y="350.0" type="curve" smooth="yes"/>
      <point x="371.5" y="414.0"/>
      <point x="349.0" y="455.5"/>
      <point x="297.0" y="484.5" type="curve"/>
      <point x="340.0" y="509.5"/>
      <point x="358.0" y="546.5"/>
      <point x="358.0" y="608.5" type="curve" smooth="yes"/>
      <point x="358.0" y="697.5"/>
      <point x="297.5" y="753.0"/>
      <point x="201.0" y="753.0" type="curve" smooth="yes"/>
      <point x="105.0" y="753.0"/>
      <point x="44.0" y="697.0"/>
      <point x="44.0" y="608.5" type="curve" smooth="yes"/>
      <point x="44.0" y="549.0"/>
      <point x="64.0" y="507.5"/>
      <point x="107.0" y="479.0" type="curve"/>
      <point x="54.5" y="447.5"/>
      <point x="31.0" y="403.0"/>
      <point x="31.0" y="338.0" type="curve" smooth="yes"/>
      <point x="31.0" y="252.0"/>
      <point x="96.0" y="198.0"/>
    </contour>
    <contour>
      <point x="201.0" y="271.0" type="curve" smooth="yes"/>
      <point x="149.0" y="271.0"/>
      <point x="116.0" y="302.0"/>
      <point x="116.0" y="350.5" type="curve" smooth="yes"/>
      <point x="116.0" y="395.5"/>
      <point x="133.5" y="422.5"/>
      <point x="183.0" y="449.0" type="curve"/>
      <point x="202.5" y="442.0" type="line" smooth="yes"/>
      <point x="265.0" y="421.0"/>
      <point x="286.5" y="396.5"/>
      <point x="286.5" y="349.5" type="curve" smooth="yes"/>
      <point x="286.5" y="300.5"/>
      <point x="253.5" y="271.0"/>
    </contour>
    <contour>
      <point x="215.5" y="510.0" type="curve"/>
      <point x="204.5" y="513.0" type="line" smooth="yes"/>
      <point x="149.5" y="530.5"/>
      <point x="126.5" y="555.5"/>
      <point x="126.5" y="601.5" type="curve" smooth="yes"/>
      <point x="126.5" y="648.5"/>
      <point x="154.0" y="678.0"/>
      <point x="201.0" y="678.0" type="curve" smooth="yes"/>
      <point x="248.0" y="678.0"/>
      <point x="275.5" y="651.5"/>
      <point x="275.5" y="603.0" type="curve" smooth="yes"/>
      <point x="275.5" y="557.0"/>
      <point x="257.5" y="529.0"/>
    </contour>
  </outline>
</glyph>
<glyph name="eight.tosf" format="1">
  <advance width="540.0"/>
  <outline>
    <contour>
      <point x="270.5" y="-3.0" type="curve" smooth="yes"/>
      <point x="405.5" y="-3.0"/>
      <point x="488.0" y="66.0"/>
      <point x="488.0" y="186.0" type="curve" smooth="yes"/>
      <point x="488.0" y="271.0"/>
      <point x="450.0" y="323.0"/>
      <point x="382.5" y="354.0" type="curve"/>
      <point x="444.0" y="386.5"/>
      <point x="470.5" y="432.5"/>
      <point x="470.5" y="510.0" type="curve" smooth="yes"/>
      <point x="470.5" y="622.0"/>
      <point x="393.5" y="689.0"/>
      <point x="270.5" y="689.0" type="curve" smooth="yes"/>
      <point x="146.5" y="689.0"/>
      <point x="69.5" y="620.5"/>
      <point x="69.5" y="512.0" type="curve" smooth="yes"/>
      <point x="69.5" y="430.0"/>
      <point x="102.5" y="380.0"/>
      <point x="159.0" y="347.5" type="curve"/>
      <point x="85.0" y="310.0"/>
      <point x="52.0" y="249.0"/>
      <point x="52.0" y="170.5" type="curve" smooth="yes"/>
      <point x="52.0" y="60.0"/>
      <point x="135.0" y="-3.0"/>
    </contour>
    <contour>
      <point x="270.0" y="74.5" type="curve" smooth="yes"/>
      <point x="202.0" y="74.5"/>
      <point x="159.5" y="110.0"/>
      <point x="159.5" y="185.5" type="curve" smooth="yes"/>
      <point x="159.5" y="241.5"/>
      <point x="187.0" y="281.5"/>
      <point x="245.0" y="311.0" type="curve"/>
      <point x="328.0" y="288.5"/>
      <point x="380.5" y="253.0"/>
      <point x="380.5" y="177.0" type="curve" smooth="yes"/>
      <point x="380.5" y="109.0"/>
      <point x="338.5" y="74.5"/>
    </contour>
    <contour>
      <point x="270.5" y="609.5" type="curve" smooth="yes"/>
      <point x="332.0" y="609.5"/>
      <point x="366.5" y="576.5"/>
      <point x="366.5" y="510.0" type="curve" smooth="yes"/>
      <point x="366.5" y="449.0"/>
      <point x="343.0" y="410.0"/>
      <point x="294.5" y="384.0" type="curve"/>
      <point x="214.0" y="408.5"/>
      <point x="173.5" y="441.0"/>
      <point x="173.5" y="505.5" type="curve" smooth="yes"/>
      <point x="173.5" y="573.0"/>
      <point x="209.5" y="609.5"/>
    </contour>
  </outline>
</glyph>
<glyph name="five.numerator" format="1">
  <advance width="343.0"/>
  <outline>
    <contour>
      <point x="130.5" y="192.0" type="curve" smooth="yes"/>
      <point x="249.5" y="192.0"/>
      <point x="318.0" y="255.0"/>
      <point x="318.0" y="364.5" type="curve" smooth="yes"/>
      <point x="318.0" y="476.5"/>
      <point x="263.0" y="524.5"/>
      <point x="126.0" y="528.5" type="curve"/>
      <point x="136.0" y="663.0" type="line"/>
      <point x="290.0" y="663.0" type="line"/>
      <point x="290.0" y="746.0" type="line"/>
      <point x="58.5" y="746.0" type="line"/>
      <point x="38.5" y="463.0" type="line"/>
      <point x="45.5" y="456.5" type="line"/>
      <point x="92.0" y="456.5" type="line" smooth="yes"/>
      <point x="186.0" y="456.5"/>
      <point x="218.0" y="431.5"/>
      <point x="218.0" y="364.5" type="curve" smooth="yes"/>
      <point x="218.0" y="305.5"/>
      <point x="186.5" y="273.5"/>
      <point x="124.5" y="273.5" type="curve" smooth="yes"/>
      <point x="105.0" y="273.5"/>
      <point x="83.5" y="276.5"/>
      <point x="57.5" y="282.5" type="curve"/>
      <point x="33.5" y="282.5" type="line"/>
      <point x="33.5" y="203.5" type="line"/>
      <point x="74.0" y="195.5"/>
      <point x="104.0" y="192.0"/>
    </contour>
  </outline>
</glyph>
<glyph name="five.osf" format="1">
  <advance width="427.5"/>
  <outline>
    <contour>
      <point x="157.5" y="-169.5" type="curve" smooth="yes"/>
      <point x="312.0" y="-169.5"/>
      <point x="402.0" y="-84.5"/>
      <point x="402.0" y="61.0" type="curve" smooth="yes"/>
      <point x="402.0" y="219.0"/>
      <point x="325.0" y="281.0"/>
      <point x="131.0" y="281.0" type="curve"/>
      <point x="140.0" y="238.5" type="line"/>
      <point x="160.5" y="538.5" type="line"/>
      <point x="119.0" y="485.5" type="line"/>
      <point x="374.0" y="485.5" type="line"/>
      <point x="374.0" y="582.5" type="line"/>
      <point x="67.0" y="582.5" type="line"/>
      <point x="41.5" y="201.0" type="line"/>
      <point x="45.5" y="197.0" type="line"/>
      <point x="105.5" y="197.0" type="line" smooth="yes"/>
      <point x="240.0" y="197.0"/>
      <point x="286.5" y="161.0"/>
      <point x="286.5" y="61.0" type="curve" smooth="yes"/>
      <point x="286.5" y="-26.0"/>
      <point x="239.5" y="-72.5"/>
      <point x="149.5" y="-72.5" type="curve" smooth="yes"/>
      <point x="123.0" y="-72.5"/>
      <point x="94.0" y="-68.5"/>
      <point x="59.0" y="-60.5" type="curve"/>
      <point x="34.5" y="-60.5" type="line"/>
      <point x="34.5" y="-154.5" type="line"/>
      <point x="84.0" y="-165.0"/>
      <point x="122.5" y="-169.5"/>
    </contour>
  </outline>
</glyph>
<glyph name="four.denominator" format="1">
  <advance width="397.5"/>
  <outline>
    <contour>
      <point x="225.5" y="0.0" type="line"/>
      <point x="325.0" y="0.0" type="line"/>
      <point x="325.0" y="121.5" type="line"/>
      <point x="378.5" y="121.5" type="line"/>
      <point x="378.5" y="195.5" type="line"/>
      <point x="325.0" y="195.5" type="line"/>
      <point x="325.0" y="368.0" type="line"/>
      <point x="262.0" y="368.0" type="line"/>
      <point x="234.5" y="195.5" type="line"/>
      <point x="109.0" y="195.5" type="line"/>
      <point x="279.5" y="528.0" type="line"/>
      <point x="274.5" y="540.0" type="line"/>
      <point x="192.5" y="548.5" type="line"/>
      <point x="182.0" y="543.0" type="line"/>
      <point x="12.0" y="179.5" type="line"/>
      <point x="27.5" y="121.5" type="line"/>
      <point x="225.5" y="121.5" type="line"/>
    </contour>
  </outline>
</glyph>
<glyph name="hungarumlaut.cap" format="1">
  <advance width="437.0"/>
  <outline>
    <contour>
      <point x="203.0" y="782.5" type="move" name="_topUC"/>
    </contour>
    <contour>
      <point x="139.5" y="787.0" type="line"/>
      <point x="243.5" y="949.0" type="line"/>
      <point x="146.0" y="949.0" type="line"/>
      <point x="74.5" y="799.0" type="line"/>
    </contour>
    <contour>
      <point x="302.0" y="787.0" type="line"/>
      <point x="406.0" y="949.0" type="line"/>
      <point x="308.5" y="949.0" type="line"/>
      <point x="237.0" y="799.0" type="line"/>
    </contour>
  </outline>
</glyph>
<glyph name="minus.tab" format="1">
  <advance width="540.0"/>
  <outline>
    <contour>
      <point x="67.5" y="328.0" type="line"/>
      <point x="471.5" y="328.0" type="line"/>
      <point x="471.5" y="412.0" type="line"/>
      <point x="67.5" y="412.0" type="line"/>
    </contour>
  </outline>
</glyph>
<glyph name="parenleft.sc" format="1">
  <advance width="282.5"/>
  <outline>
    <contour>
      <point x="170.5" y="-125.0" type="curve"/>
      <point x="263.0" y="-125.0" type="line"/>
      <point x="263.0" y="-122.0" type="line"/>
      <point x="175.5" y="-6.5"/>
      <point x="123.5" y="133.0"/>
      <point x="123.5" y="276.0" type="curve" smooth="yes"/>
      <point x="123.5" y="419.0"/>
      <point x="175.5" y="559.0"/>
      <point x="263.0" y="674.0" type="curve"/>
      <point x="263.0" y="677.0" type="line"/>
      <point x="170.5" y="677.0" type="line"/>
      <point x="82.5" y="561.0"/>
      <point x="36.5" y="419.5"/>
      <point x="36.5" y="276.0" type="curve" smooth="yes"/>
      <point x="36.5" y="132.5"/>
      <point x="82.5" y="-9.0"/>
    </contour>
  </outline>
</glyph>
<glyph name="percent.tab" format="1">
  <advance width="540.0"/>
  <outline>
    <contour>
      <point x="78.0" y="289.5" type="curve" smooth="yes"/>
      <point x="161.5" y="289.5"/>
      <point x="205.0" y="367.0"/>
      <point x="205.0" y="514.5" type="curve" smooth="yes"/>
      <point x="205.0" y="661.5"/>
      <point x="161.5" y="740.0"/>
      <point x="78.0" y="740.0" type="curve" smooth="yes"/>
      <point x="-4.5" y="740.0"/>
      <point x="-49.5" y="661.5"/>
      <point x="-49.5" y="514.5" type="curve" smooth="yes"/>
      <point x="-49.5" y="367.0"/>
      <point x="-5.0" y="289.5"/>
    </contour>
    <contour>
      <point x="78.0" y="357.0" type="curve" smooth="yes"/>
      <point x="40.0" y="357.0"/>
      <point x="23.0" y="406.0"/>
      <point x="23.0" y="514.5" type="curve" smooth="yes"/>
      <point x="23.0" y="622.0"/>
      <point x="40.5" y="672.5"/>
      <point x="78.0" y="672.5" type="curve" smooth="yes"/>
      <point x="115.5" y="672.5"/>
      <point x="132.5" y="623.0"/>
      <point x="132.5" y="514.5" type="curve" smooth="yes"/>
      <point x="132.5" y="405.5"/>
      <point x="116.5" y="357.0"/>
    </contour>
    <contour>
      <point x="462.0" y="-2.5" type="curve" smooth="yes"/>
      <point x="545.5" y="-2.5"/>
      <point x="589.5" y="75.0"/>
      <point x="589.5" y="222.5" type="curve" smooth="yes"/>
      <point x="589.5" y="369.5"/>
      <point x="545.5" y="448.0"/>
      <point x="462.0" y="448.0" type="curve" smooth="yes"/>
      <point x="379.5" y="448.0"/>
      <point x="335.0" y="369.5"/>
      <point x="335.0" y="222.5" type="curve" smooth="yes"/>
      <point x="335.0" y="75.0"/>
      <point x="379.0" y="-2.5"/>
    </contour>
    <contour>
      <point x="462.0" y="65.0" type="curve" smooth="yes"/>
      <point x="424.0" y="65.0"/>
      <point x="408.0" y="114.0"/>
      <point x="408.0" y="222.5" type="curve" smooth="yes"/>
      <point x="408.0" y="330.0"/>
      <point x="425.0" y="380.5"/>
      <point x="462.0" y="380.5" type="curve" smooth="yes"/>
      <point x="500.0" y="380.5"/>
      <point x="516.5" y="331.0"/>
      <point x="516.5" y="222.5" type="curve" smooth="yes"/>
      <point x="516.5" y="113.5"/>
      <point x="500.5" y="65.0"/>
    </contour>
    <contour>
      <point x="129.0" y="0.0" type="line"/>
      <point x="209.5" y="0.0" type="line"/>
      <point x="409.0" y="740.0" type="line"/>
      <point x="329.0" y="740.0" type="line"/>
    </contour>
  </outline>
</glyph>
<glyph name="period.tab" format="1">
  <advance width="270.0"/>
  <outline>
    <contour>
      <point x="134.0" y="-5.0" type="curve" smooth="yes"/>
      <point x="181.0" y="-5.0"/>
      <point x="203.5" y="16.0"/>
      <point x="203.5" y="60.5" type="curve" smooth="yes"/>
      <point x="203.5" y="105.0"/>
      <point x="180.5" y="126.0"/>
      <point x="134.0" y="126.0" type="curve" smooth="yes"/>
      <point x="86.5" y="126.0"/>
      <point x="65.5" y="105.5"/>
      <point x="65.5" y="60.5" type="curve" smooth="yes"/>
      <point x="65.5" y="15.5"/>
      <point x="87.0" y="-5.0"/>
    </contour>
  </outline>
</glyph>
<glyph name="plusminus.tab" format="1">
  <advance width="540.0"/>
  <outline>
    <contour>
      <point x="54.5" y="385.0" type="line"/>
      <point x="226.5" y="385.0" type="line"/>
      <point x="226.5" y="225.0" type="line"/>
      <point x="313.0" y="225.0" type="line"/>
      <point x="313.0" y="385.0" type="line"/>
      <point x="484.5" y="385.0" type="line"/>
      <point x="484.5" y="469.0" type="line"/>
      <point x="313.0" y="469.0" type="line"/>
      <point x="313.0" y="634.0" type="line"/>
      <point x="226.5" y="634.0" type="line"/>
      <point x="226.5" y="469.0" type="line"/>
      <point x="54.5" y="469.0" type="line"/>
    </contour>
    <contour>
      <point x="55.0" y="73.5" type="line"/>
      <point x="485.0" y="73.5" type="line"/>
      <point x="485.0" y="157.5" type="line"/>
      <point x="55.0" y="157.5" type="line"/>
    </contour>
  </outline>
</glyph>
<glyph name="quotedbl.tab" format="1">
  <advance width="270.0"/>
  <outline>
    <contour>
      <point x="-11.5" y="808.0" type="line"/>
      <point x="-11.5" y="480.0" type="line"/>
      <point x="50.5" y="480.0" type="line"/>
      <point x="88.0" y="804.0" type="line"/>
      <point x="88.0" y="808.0" type="line"/>
    </contour>
    <contour>
      <point x="200.0" y="808.0" type="line"/>
      <point x="200.0" y="480.0" type="line"/>
      <point x="262.0" y="480.0" type="line"/>
      <point x="298.5" y="804.0" type="line"/>
      <point x="298.5" y="808.0" type="line"/>
    </contour>
  </outline>
</glyph>
<glyph name="semicolon.tab" format="1">
  <advance width="270.0"/>
  <outline>
    <contour>
      <point x="122.5" y="-155.0" type="line"/>
      <point x="200.0" y="122.5" type="line"/>
      <point x="85.5" y="122.5" type="line"/>
      <point x="37.0" y="-145.0" type="line"/>
    </contour>
    <contour>
      <point x="139.5" y="415.0" type="curve" smooth="yes"/>
      <point x="186.5" y="415.0"/>
      <point x="208.0" y="436.0"/>
      <point x="208.0" y="480.5" type="curve" smooth="yes"/>
      <point x="208.0" y="525.0"/>
      <point x="186.0" y="546.0"/>
      <point x="139.5" y="546.0" type="curve" smooth="yes"/>
      <point x="93.5" y="546.0"/>
      <point x="72.0" y="525.5"/>
      <point x="72.0" y="480.5" type="curve" smooth="yes"/>
      <point x="72.0" y="435.5"/>
      <point x="94.0" y="415.0"/>
    </contour>
  </outline>
</glyph>
<glyph name="seven.tf" format="1">
  <advance width="540.0"/>
  <outline>
    <contour>
      <point x="215.0" y="-15.0" type="line"/>
      <point x="119.5" y="0.0" type="line"/>
      <point x="119.5" y="16.0" type="line"/>
      <point x="369.5" y="643.0" type="line"/>
      <point x="65.0" y="643.0" type="line"/>
      <point x="61.5" y="726.5" type="line"/>
      <point x="75.0" y="740.0" type="line"/>
      <point x="467.5" y="740.0" type="line"/>
      <point x="484.0" y="675.5" type="line"/>
      <point x="484.0" y="647.5" type="line"/>
      <point x="237.0" y="0.5" type="line"/>
    </contour>
  </outline>
</glyph>
<glyph name="sterling.tab" format="1">
  <advance width="540.0"/>
  <outline>
    <contour>
      <point x="33.0" y="325.0" type="line"/>
      <point x="140.5" y="325.0" type="line"/>
      <point x="140.5" y="99.0" type="line"/>
      <point x="33.0" y="99.0" type="line"/>
      <point x="33.0" y="0.0" type="line"/>
      <point x="495.5" y="0.0" type="line"/>
      <point x="495.5" y="98.0" type="line"/>
      <point x="254.5" y="98.0" type="line"/>
      <point x="254.5" y="325.0" type="line"/>
      <point x="421.5" y="325.0" type="line"/>
      <point x="421.5" y="414.5" type="line"/>
      <point x="254.5" y="414.5" type="line"/>
      <point x="254.5" y="528.0" type="line" smooth="yes"/>
      <point x="254.5" y="617.5"/>
      <point x="283.0" y="650.5"/>
      <point x="358.5" y="650.5" type="curve" smooth="yes"/>
      <point x="396.5" y="650.5"/>
      <point x="454.5" y="642.0"/>
      <point x="502.0" y="628.0" type="curve"/>
      <point x="510.0" y="720.0" type="line"/>
      <point x="440.5" y="738.0"/>
      <point x="386.0" y="747.0"/>
      <point x="338.0" y="747.0" type="curve" smooth="yes"/>
      <point x="199.0" y="747.0"/>
      <point x="140.5" y="678.0"/>
      <point x="140.5" y="530.5" type="curve" smooth="yes"/>
      <point x="140.5" y="414.5" type="line"/>
      <point x="33.0" y="414.5" type="line"/>
    </contour>
  </outline>
</glyph>
<glyph name="three.tf" format="1">
  <advance width="540.0"/>
  <outline>
    <contour>
      <point x="205.5" y="-8.0" type="curve" smooth="yes"/>
      <point x="372.0" y="-8.0"/>
      <point x="470.0" y="67.5"/>
      <point x="470.0" y="194.5" type="curve" smooth="yes"/>
      <point x="470.0" y="296.0"/>
      <point x="414.5" y="361.5"/>
      <point x="311.0" y="382.0" type="curve"/>
      <point x="311.0" y="385.0" type="line"/>
      <point x="399.0" y="406.0"/>
      <point x="447.0" y="469.5"/>
      <point x="447.0" y="566.0" type="curve" smooth="yes"/>
      <point x="447.0" y="688.0"/>
      <point x="366.5" y="750.5"/>
      <point x="206.0" y="750.5" type="curve" smooth="yes"/>
      <point x="159.5" y="750.5"/>
      <point x="115.0" y="745.5"/>
      <point x="69.5" y="734.5" type="curve"/>
      <point x="75.0" y="647.5" type="line"/>
      <point x="83.0" y="647.5" type="line"/>
      <point x="130.0" y="656.5"/>
      <point x="166.0" y="661.0"/>
      <point x="197.0" y="661.0" type="curve" smooth="yes"/>
      <point x="286.5" y="661.0"/>
      <point x="329.0" y="623.5"/>
      <point x="329.0" y="544.0" type="curve" smooth="yes"/>
      <point x="329.0" y="460.0"/>
      <point x="278.0" y="421.5"/>
      <point x="167.0" y="421.5" type="curve" smooth="yes"/>
      <point x="141.0" y="421.5" type="line"/>
      <point x="141.0" y="338.5" type="line"/>
      <point x="167.0" y="338.5" type="line" smooth="yes"/>
      <point x="296.0" y="338.5"/>
      <point x="351.5" y="295.0"/>
      <point x="351.5" y="202.5" type="curve" smooth="yes"/>
      <point x="351.5" y="120.0"/>
      <point x="297.5" y="78.5"/>
      <point x="189.5" y="78.5" type="curve" smooth="yes"/>
      <point x="148.5" y="78.5"/>
      <point x="109.0" y="83.5"/>
      <point x="79.5" y="92.5" type="curve"/>
      <point x="72.5" y="92.5" type="line"/>
      <point x="72.5" y="5.0" type="line"/>
      <point x="119.5" y="-4.5"/>
      <point x="163.0" y="-8.0"/>
    </contour>
  </outline>
</glyph>
<glyph name="two.denominator" format="1">
  <advance width="366.5"/>
  <outline>
    <contour>
      <point x="29.0" y="0.0" type="line"/>
      <point x="332.0" y="0.0" type="line"/>
      <point x="332.0" y="83.0" type="line"/>
      <point x="131.0" y="83.0" type="line"/>
      <point x="131.0" y="104.5" type="line" smooth="yes"/>
      <point x="131.0" y="149.0"/>
      <point x="160.5" y="185.0"/>
      <point x="232.5" y="240.5" type="curve" smooth="yes"/>
      <point x="308.0" y="297.0"/>
      <point x="334.0" y="340.5"/>
      <point x="334.0" y="410.5" type="curve" smooth="yes"/>
      <point x="334.0" y="504.5"/>
      <point x="280.0" y="553.5"/>
      <point x="175.0" y="553.5" type="curve" smooth="yes"/>
      <point x="139.5" y="553.5"/>
      <point x="94.0" y="546.5"/>
      <point x="40.0" y="532.5" type="curve"/>
      <point x="51.0" y="453.0" type="line"/>
      <point x="75.5" y="462.5"/>
      <point x="118.5" y="469.0"/>
      <point x="153.0" y="469.0" type="curve" smooth="yes"/>
      <point x="206.5" y="469.0"/>
      <point x="234.5" y="445.0"/>
      <point x="234.5" y="400.5" type="curve" smooth="yes"/>
      <point x="234.5" y="360.5"/>
      <point x="216.0" y="334.5"/>
      <point x="155.5" y="290.0" type="curve" smooth="yes"/>
      <point x="60.5" y="222.0"/>
      <point x="29.0" y="170.5"/>
      <point x="29.0" y="87.0" type="curve" smooth="yes"/>
    </contour>
  </outline>
</glyph>
<glyph name="two.tosf" format="1">
  <advance width="540.0"/>
  <outline>
    <contour>
      <point x="71.0" y="0.0" type="line"/>
      <point x="460.5" y="0.0" type="line"/>
      <point x="460.5" y="98.0" type="line"/>
      <point x="194.5" y="98.0" type="line"/>
      <point x="194.5" y="117.5" type="line" smooth="yes"/>
      <point x="194.5" y="169.5"/>
      <point x="226.0" y="201.5"/>
      <point x="302.0" y="242.0" type="curve" smooth="yes"/>
      <point x="392.5" y="286.0"/>
      <point x="463.5" y="325.0"/>
      <point x="463.5" y="432.5" type="curve" smooth="yes"/>
      <point x="463.5" y="539.0"/>
      <point x="385.0" y="591.0"/>
      <point x="266.0" y="591.0" type="curve" smooth="yes"/>
      <point x="213.5" y="591.0"/>
      <point x="151.0" y="581.5"/>
      <point x="88.0" y="559.5" type="curve"/>
      <point x="101.0" y="470.5" type="line"/>
      <point x="142.5" y="486.0"/>
      <point x="192.0" y="498.5"/>
      <point x="234.5" y="498.5" type="curve" smooth="yes"/>
      <point x="305.0" y="498.5"/>
      <point x="352.5" y="473.0"/>
      <point x="352.5" y="422.0" type="curve" smooth="yes"/>
      <point x="352.5" y="373.5"/>
      <point x="302.0" y="346.5"/>
      <point x="217.0" y="300.0" type="curve" smooth="yes"/>
      <point x="124.5" y="249.0"/>
      <point x="71.0" y="190.5"/>
      <point x="71.0" y="88.5" type="curve" smooth="yes"/>
    </contour>
  </outline>
</glyph>
<glyph name="uni021A.sc" format="1">
  <advance width="459.5"/>
  <outline>
    <contour>
      <point x="175.5" y="0.0" type="line"/>
      <point x="284.0" y="0.0" type="line"/>
      <point x="284.0" y="484.0" type="line"/>
      <point x="442.0" y="484.0" type="line"/>
      <point x="442.0" y="577.0" type="line"/>
      <point x="17.5" y="577.0" type="line"/>
      <point x="17.5" y="484.0" type="line"/>
      <point x="175.5" y="484.0" type="line"/>
    </contour>
    <contour>
      <point x="144.5" y="-172.0" type="line"/>
      <point x="227.5" y="-172.0" type="line"/>
      <point x="293.5" y="-53.5" type="line"/>
      <point x="185.0" y="-53.5" type="line"/>
    </contour>
  </outline>
</glyph>
<glyph name="uni030F.cap" format="1">
  <advance width="393.5"/>
  <outline>
    <contour>
      <point x="239.0" y="782.5" type="move" name="_topUC"/>
    </contour>
    <contour>
      <point x="196.5" y="799.0" type="line"/>
      <point x="125.0" y="949.0" type="line"/>
      <point x="27.5" y="949.0" type="line"/>
      <point x="132.0" y="787.0" type="line"/>
    </contour>
    <contour>
      <point x="359.0" y="799.0" type="line"/>
      <point x="287.5" y="949.0" type="line"/>
      <point x="190.0" y="949.0" type="line"/>
      <point x="294.5" y="787.0" type="line"/>
    </contour>
  </outline>
</glyph>
<glyph name="zero.osf" format="1">
  <advance width="558.0"/>
  <outline>
    <contour>
      <point x="279.0" y="-10.0" type="curve" smooth="yes"/>
      <point x="439.5" y="-10.0"/>
      <point x="523.0" y="90.0"/>
      <point x="523.0" y="289.0" type="curve" smooth="yes"/>
      <point x="523.0" y="489.0"/>
      <point x="439.5" y="590.0"/>
      <point x="279.0" y="590.0" type="curve" smooth="yes"/>
      <point x="118.5" y="590.0"/>
      <point x="35.0" y="488.5"/>
      <point x="35.0" y="289.0" type="curve" smooth="yes"/>
      <point x="35.0" y="90.0"/>
      <point x="118.5" y="-10.0"/>
    </contour>
    <contour>
      <point x="279.0" y="86.5" type="curve" smooth="yes"/>
      <point x="190.0" y="86.5"/>
      <point x="149.5" y="147.5"/>
      <point x="149.5" y="289.0" type="curve" smooth="yes"/>
      <point x="149.5" y="427.5"/>
      <point x="193.0" y="493.5"/>
      <point x="279.0" y="493.5" type="curve" smooth="yes"/>
      <point x="365.5" y="493.5"/>
      <point x="408.5" y="428.0"/>
      <point x="408.5" y="289.0" type="curve" smooth="yes"/>
      <point x="408.5" y="148.0"/>
      <point x="368.0" y="86.5"/>
    </contour>
  </outline>
</glyph>
<glyph name="zero.tosf" format="1">
  <advance width="540.0"/>
  <outline>
    <contour>
      <point x="269.0" y="-10.0" type="curve" smooth="yes"/>
      <point x="421.5" y="-10.0"/>
      <point x="500.5" y="90.0"/>
      <point x="500.5" y="289.0" type="curve" smooth="yes"/>
      <point x="500.5" y="489.0"/>
      <point x="421.5" y="590.0"/>
      <point x="269.0" y="590.0" type="curve" smooth="yes"/>
      <point x="117.5" y="590.0"/>
      <point x="38.5" y="488.5"/>
      <point x="38.5" y="289.0" type="curve" smooth="yes"/>
      <point x="38.5" y="90.0"/>
      <point x="117.5" y="-10.0"/>
    </contour>
    <contour>
      <point x="269.0" y="86.5" type="curve" smooth="yes"/>
      <point x="188.5" y="86.5"/>
      <point x="152.0" y="147.5"/>
      <point x="152.0" y="289.0" type="curve" smooth="yes"/>
      <point x="152.0" y="427.5"/>
      <point x="191.5" y="493.5"/>
      <point x="269.0" y="493.5" type="curve" smooth="yes"/>
      <point x="348.0" y="493.5"/>
      <point x="387.0" y="428.0"/>
      <point x="387.0" y="289.0" type="curve" smooth="yes"/>
      <point x="387.0" y="148.0"/>
      <point x="350.5" y="86.5"/>
    </contour>
  </outline>
</glyph>
